<svg width="49" height="53" viewBox="0 0 49 53" fill="none" xmlns="http://www.w3.org/2000/svg">
<path d="M29.187 0.149536C29.5712 0.376016 29.8239 0.68612 29.6716 1.15302C29.5193 1.61991 29.1247 1.68612 28.6886 1.68263C21.693 1.67566 10.7273 1.67915 3.73177 1.67915C2.59643 1.67915 2.29874 1.9788 2.29874 3.1321C2.29874 9.51187 2.29874 15.8882 2.29874 22.2679C2.29874 23.3446 2.61374 23.6651 3.68677 23.6651C8.14853 23.6651 12.6103 23.6651 17.0686 23.6651C17.342 23.6651 17.5809 23.6477 17.8024 23.4247C20.0177 21.1808 22.2434 18.9474 24.4656 16.7105C24.5106 16.6652 24.5522 16.6094 24.6318 16.5119C24.4449 16.4631 24.2926 16.4247 24.1403 16.3864C23.6176 16.2505 23.3234 15.9056 23.2991 15.369C23.2714 14.7592 23.2611 14.1425 23.2922 13.5328C23.3268 12.8533 23.8322 12.484 24.656 12.4805C25.4833 12.4735 25.9748 12.8255 26.0302 13.5153C26.0683 13.9822 26.0371 14.4561 26.0371 14.93C26.1029 14.9613 26.1686 14.9927 26.231 15.0275C26.5806 14.6443 26.9267 14.2575 27.2798 13.8777C27.5913 13.5432 27.9236 13.2157 28.3563 13.045C28.5639 12.9613 28.5639 12.822 28.5743 12.6443C28.6574 11.1669 29.3428 10.0728 30.7239 9.53278C32.1188 8.98923 33.3753 9.29933 34.431 10.3795C34.528 10.4805 34.618 10.5607 34.7737 10.5572C35.6668 10.5537 36.5563 10.5572 37.4425 10.5572C37.5082 10.3446 37.3767 10.2366 37.3075 10.1112C35.8675 7.55369 34.4172 5.00318 32.9911 2.43873C32.6934 1.90214 32.2988 1.66173 31.6827 1.67566C30.5681 1.70354 29.4535 1.67566 28.3355 1.68612C27.9097 1.68612 27.5151 1.65476 27.3317 1.18438C27.1448 0.707026 27.4355 0.421312 27.7505 0.149536H32.413C33.4099 0.428281 34.0122 1.11469 34.5003 2.00667C36.0025 4.74186 37.5636 7.44568 39.0866 10.1704C39.2493 10.4596 39.4189 10.5711 39.7547 10.5676C41.6135 10.5502 43.4723 10.5607 45.331 10.5572C45.6495 10.5572 45.9714 10.4805 46.2864 10.5084C47.1517 10.585 47.7852 11.0345 48.0932 11.8568C48.4082 12.6965 48.2421 13.4735 47.6156 14.1146C46.2518 15.5084 44.8845 16.8986 43.4896 18.2575C43.1607 18.578 43.1123 18.8463 43.2334 19.2714C44.0884 22.3272 44.9018 25.3934 45.7568 28.4491C46.0925 29.6477 45.8468 30.6268 44.9641 31.5118C38.3494 38.1494 31.7484 44.8079 25.1406 51.456C23.8737 52.7312 22.3957 52.7347 21.1358 51.4664C16.5944 46.8985 12.0565 42.3271 7.51855 37.7592C6.2759 36.5083 6.27937 35.017 7.52548 33.7627C10.2012 31.0693 12.8768 28.3759 15.549 25.6791C15.6736 25.5536 15.8467 25.4596 15.8883 25.254C15.7083 25.1529 15.5179 25.2017 15.3413 25.2017C11.423 25.1982 7.50124 25.2017 3.58292 25.1982C2.12567 25.1982 1.14263 24.47 0.831107 23.2017C0.758418 22.8986 0.772259 22.592 0.772259 22.2888C0.772259 15.9788 0.799951 9.66867 0.751491 3.36207C0.741107 1.76626 1.27416 0.672183 2.80411 0.153021H29.1801L29.187 0.149536ZM38.8755 16.9613C38.6782 16.8882 38.5882 16.8463 38.4913 16.822C35.6287 16.0275 32.7661 15.247 29.907 14.4387C29.3081 14.268 28.8824 14.4248 28.4566 14.8568C21.8592 21.5118 15.2513 28.1599 8.64697 34.8114C7.94777 35.5153 7.94431 36.0205 8.64005 36.7174C13.1537 41.2644 17.6709 45.8079 22.1846 50.3515C22.8976 51.0692 23.3753 51.0762 24.078 50.3689C30.6962 43.7069 37.3109 37.0449 43.9361 30.3899C44.3722 29.9508 44.4726 29.5048 44.3099 28.916C43.5138 26.0728 42.7453 23.2226 41.9665 20.3759C41.9319 20.2505 41.9458 20.1042 41.7554 20.0066C41.4231 20.3481 41.0908 20.707 40.7377 21.0484C40.1666 21.5989 39.5297 22.1077 39.7028 23.0484C39.7132 23.1076 39.6751 23.1808 39.6578 23.2435C39.2078 24.9996 37.5878 26.0519 35.7983 25.7557C34.0918 25.4735 32.8907 23.8847 33.0361 22.1007C33.1745 20.3934 34.6353 19.0519 36.3798 19.031C36.5806 19.031 36.7709 19.0554 36.9406 18.8812C37.5567 18.254 38.1867 17.6443 38.879 16.9613H38.8755ZM46.7191 12.7593C46.7121 12.376 46.6083 12.1948 46.3868 12.0903C46.0475 11.93 45.8122 12.1007 45.5837 12.3342C42.8492 15.0903 40.1147 17.8429 37.3802 20.5989C37.0202 20.9613 36.9717 21.3202 37.2625 21.5641C37.6052 21.8498 37.9098 21.7313 38.1971 21.4422C40.942 18.6756 43.6903 15.9091 46.4352 13.146C46.5806 12.9997 46.7191 12.8498 46.7156 12.7627L46.7191 12.7593ZM43.6107 12.0868H43.1538C40.1147 12.0868 37.079 12.0868 34.0399 12.0868C33.9395 12.0868 33.8357 12.0833 33.7353 12.0903C33.3995 12.1181 33.1988 12.3133 33.1815 12.6408C33.1642 12.9718 33.3407 13.1913 33.673 13.2436C33.8391 13.2714 34.0087 13.268 34.1784 13.268C36.5079 13.268 38.8374 13.2018 41.1635 13.2993C42.2123 13.3446 42.9392 13.0171 43.5311 12.2192C43.5415 12.2052 43.5484 12.1913 43.6107 12.0868ZM35.5387 20.8254C34.7876 21.1982 34.4103 21.9822 34.5695 22.7801C34.7322 23.592 35.4002 24.1948 36.2171 24.261C37.0306 24.3272 37.6951 23.9543 37.9478 23.2853C36.269 23.146 35.6218 22.4944 35.5387 20.8254ZM32.4511 10.9195C31.3019 10.599 30.2047 11.3411 30.1077 12.5153C30.0939 12.6791 30.0454 12.8847 30.26 12.9474C30.7308 13.0868 31.1946 13.261 31.7 13.3063C31.6065 12.1077 31.6273 12.0415 32.4511 10.9195ZM25.2341 14.5049C25.2341 14.5049 25.2271 14.5049 25.2237 14.5049C25.2237 14.2505 25.2271 13.9962 25.2237 13.7418C25.2168 13.3864 25.016 13.2192 24.6768 13.2192C24.3341 13.2192 24.1299 13.3969 24.1229 13.7418C24.1126 14.2331 24.116 14.7244 24.1403 15.2157C24.1541 15.5676 24.3756 15.7279 24.7149 15.7105C25.0541 15.6965 25.2444 15.5223 25.241 15.1669C25.241 14.9474 25.241 14.7279 25.241 14.5049H25.2341ZM40.8623 14.8498C39.4501 14.6721 39.277 14.7244 39.0728 15.362C40.2601 15.7523 39.9797 15.8742 40.8623 14.8498Z" fill="black"/>
<path d="M20.1042 12.913C20.1388 13.5751 20.2288 14.2372 20.118 14.8958C19.9692 15.76 19.481 16.2932 18.6363 16.4988C18.0859 16.6312 17.532 16.6312 16.9851 16.4814C16.2477 16.2758 15.7596 15.7949 15.6453 15.0422C15.4411 13.711 15.4722 12.3624 15.583 11.0278C15.6661 10.0276 16.3827 9.42827 17.3797 9.33766C17.6982 9.30979 18.0236 9.3063 18.3386 9.33766C19.3426 9.44221 20.0176 10.1148 20.0972 11.1288C20.1422 11.7177 20.1042 12.3171 20.1042 12.9095V12.913ZM16.8293 12.9409C16.8293 12.9409 16.8466 12.9409 16.8535 12.9409C16.8535 13.4845 16.8293 14.0281 16.8604 14.5683C16.895 15.1258 17.2378 15.4325 17.7744 15.4604C18.3594 15.4882 18.806 15.2199 18.8441 14.6867C18.9202 13.5368 18.9375 12.3798 18.8129 11.2334C18.7471 10.6444 18.3455 10.404 17.712 10.4458C17.172 10.4807 16.8639 10.7769 16.8327 11.3623C16.805 11.885 16.8258 12.4147 16.8258 12.9409H16.8293Z" fill="black"/>
<path d="M13.6518 12.7492C14.545 13.3555 14.7769 13.9689 14.5346 15.077C14.3442 15.9412 13.7626 16.4395 12.7933 16.6068C12.2117 16.7044 11.6439 16.666 11.1039 16.4395C10.4807 16.1782 10.0999 15.7077 9.99955 15.0282C9.94762 14.6763 10.0446 14.4079 10.4461 14.3801C10.8027 14.3557 11.1662 14.3069 11.2701 14.8157C11.3808 15.3628 11.7755 15.5893 12.4159 15.5231C13.0114 15.4638 13.2745 15.199 13.316 14.624C13.3783 13.7075 13.1775 13.4322 12.3086 13.3312C11.9832 13.2928 11.8689 13.1325 11.862 12.8363C11.8551 12.5088 11.9936 12.345 12.3328 12.3032C12.9248 12.2265 13.091 12.0209 13.1083 11.4459C13.1187 11.1114 13.0944 10.7803 12.7656 10.5991C12.4159 10.404 12.042 10.4353 11.6889 10.5991C11.4743 10.7002 11.3843 10.8988 11.3739 11.1427C11.3462 11.655 10.9723 11.662 10.6054 11.648C10.1726 11.6341 10.0826 11.3553 10.1207 10.9824C10.1449 10.7594 10.1865 10.5468 10.2869 10.3447C10.7335 9.46657 12.1528 9.08325 13.316 9.52233C14.1468 9.83595 14.5138 10.6862 14.2749 11.7282C14.1815 12.1394 13.9807 12.4809 13.6518 12.7492Z" fill="black"/>
<path d="M24.5274 16.8607C24.2713 16.8154 24.0601 16.6795 24.1259 16.3311C24.1501 16.2021 24.2194 16.0767 24.2748 15.9548C25.3339 13.7422 26.3931 11.5297 27.4523 9.31715C27.5042 9.20914 27.5492 9.09764 27.6115 9.00008C27.7431 8.79799 27.9404 8.77011 28.1446 8.85374C28.3558 8.94084 28.4596 9.10809 28.4111 9.34154C28.3869 9.45652 28.335 9.56454 28.2831 9.67255C27.2066 11.9164 26.1301 14.1569 25.0536 16.4008C24.9497 16.6168 24.8597 16.8433 24.5205 16.8642L24.5274 16.8607Z" fill="black"/>
<path d="M22.6097 11.1918C22.6097 11.0037 22.6131 10.819 22.6097 10.6308C22.5958 10.1046 22.6997 9.63068 23.2328 9.40417C23.8248 9.15327 24.4202 9.1463 24.9707 9.52265C25.2199 9.6934 25.3584 9.95476 25.3688 10.2579C25.3861 10.8852 25.4207 11.5159 25.3861 12.1432C25.3445 12.8785 24.8287 13.2374 23.946 13.22C23.1428 13.206 22.6789 12.8227 22.6339 12.1083C22.6131 11.8052 22.6339 11.495 22.6339 11.1918C22.627 11.1918 22.6201 11.1918 22.6131 11.1918H22.6097ZM24.5691 11.2685C24.5691 11.2685 24.5622 11.2685 24.5587 11.2685C24.5587 10.9967 24.5691 10.7249 24.5587 10.4566C24.5414 10.1185 24.306 9.98961 24.0083 9.98612C23.7313 9.98612 23.4855 10.1081 23.4717 10.4147C23.4474 10.9549 23.4509 11.4985 23.4855 12.0421C23.5063 12.3627 23.7452 12.5056 24.0567 12.4882C24.3614 12.4707 24.5656 12.3244 24.5725 11.9864C24.576 11.7494 24.5725 11.5124 24.5725 11.2755L24.5691 11.2685Z" fill="black"/>
<path d="M28.7369 39.3489C27.9337 39.3698 27.4699 39.1329 27.0821 38.76C26.3136 38.0178 25.5485 37.2755 24.825 36.4949C23.9076 35.5053 23.9907 34.4215 25.0085 33.397C26.002 32.4004 27.0787 32.3202 28.0515 33.2227C28.8061 33.9267 29.5297 34.6654 30.2428 35.4112C30.8452 36.0419 31.1567 36.7807 30.7552 37.6344C30.3051 38.5927 29.592 39.2444 28.7369 39.3489ZM29.6508 37.0351C29.6508 36.8399 29.6058 36.6483 29.4846 36.5123C28.7057 35.6446 27.9026 34.7944 27.006 34.0486C26.6217 33.728 26.1544 33.8361 25.7805 34.2194C25.4031 34.6027 25.3131 35.0662 25.6385 35.453C26.3794 36.3311 27.2068 37.1326 28.0653 37.8993C28.3492 38.1537 28.7092 38.1955 29.0519 37.9794C29.3946 37.7634 29.6439 37.4776 29.6508 37.0385V37.0351Z" fill="black"/>
<path d="M21.4329 38.5333C21.8449 39.0072 22.1738 39.387 22.5234 39.7878C22.835 39.4985 23.105 39.2198 23.4027 38.9758C24.3582 38.1883 25.2894 38.244 26.2033 39.1257C27.2073 40.0944 27.3423 41.0597 26.6015 42.0633C26.1549 42.6662 25.5941 43.1122 24.8428 43.269C24.3893 43.3631 23.967 43.2795 23.5896 43.0146C23.2885 42.8021 23.015 42.5581 23.2885 42.133C23.5585 41.7148 23.8458 41.6486 24.2889 41.9274C24.7424 42.2131 25.0955 42.0041 25.4244 41.7044C25.781 41.3733 25.9264 40.9795 25.6841 40.5161C25.1682 39.5194 24.3651 39.3975 23.5758 40.192C23.3023 40.4673 23.0254 40.7461 22.7519 41.0214C22.5165 41.2548 22.2568 41.2757 22.0457 41.0248C21.4087 40.2756 20.789 39.5125 20.1693 38.7493C20.0066 38.5507 20.0759 38.3834 20.242 38.2161C20.879 37.5819 21.5125 36.9477 22.1357 36.2995C22.4022 36.0208 22.648 36.087 22.8834 36.3135C23.1258 36.547 23.24 36.8118 22.9354 37.0975C22.4438 37.561 21.9591 38.0315 21.4398 38.5298L21.4329 38.5333Z" fill="black"/>
<path d="M35.2023 33.6545C35.1919 33.9193 35.0846 34.0796 34.8631 34.1354C34.645 34.1911 34.4581 34.1354 34.3612 33.9089C34.3196 33.8148 34.2885 33.7207 34.2573 33.6232C33.4578 31.2678 32.6582 28.9089 31.8551 26.5535C31.779 26.3305 31.6647 26.1075 31.8794 25.8915C32.1666 25.6023 32.5301 25.7452 32.6928 26.2225C33.347 28.1458 33.9943 30.0727 34.645 31.996C34.8354 32.557 35.0223 33.118 35.1988 33.651L35.2023 33.6545Z" fill="black"/>
<path d="M35.8221 27.6378C36.4868 27.6483 38.1312 29.2826 38.0931 29.9447C38.0515 30.6417 37.6049 31.0807 37.0199 31.3735C36.4833 31.6418 36.0471 31.4083 35.6594 31.0215C35.3374 30.6974 35.0155 30.3768 34.697 30.0493C34.3231 29.6694 34.1604 29.2373 34.3924 28.7146C34.6485 28.1396 35.3201 27.6343 35.8221 27.6413V27.6378ZM35.6629 28.4916C35.4621 28.502 35.3098 28.6484 35.1886 28.847C35.0605 29.0596 35.1228 29.2478 35.2717 29.4011C35.6109 29.7565 35.9571 30.1015 36.3068 30.4465C36.556 30.6939 36.8157 30.6905 37.0614 30.4465C37.3211 30.1886 37.3349 29.9099 37.0753 29.645C36.7568 29.3175 36.4349 28.9969 36.1094 28.6763C35.9987 28.5648 35.8706 28.4916 35.6663 28.4951L35.6629 28.4916Z" fill="black"/>
<path d="M31.2494 32.3176C30.4601 32.3176 28.8157 30.7076 28.8538 30.0316C28.8919 29.3347 29.3385 28.8886 29.9304 28.6029C30.4428 28.352 30.879 28.5541 31.2598 28.9269C31.5852 29.2475 31.9106 29.5716 32.2291 29.8992C32.5961 30.2755 32.8142 30.7076 32.5614 31.2338C32.2741 31.8297 31.8345 32.2479 31.2529 32.3176H31.2494ZM31.8414 30.8679C31.8206 30.8122 31.8068 30.7216 31.7548 30.6589C31.3775 30.2024 30.969 29.7702 30.5051 29.4078C30.2628 29.2197 30.0239 29.3625 29.8439 29.5716C29.6466 29.7981 29.6396 30.0421 29.8439 30.2581C30.1901 30.6275 30.5536 30.9829 30.9171 31.3349C31.0763 31.4882 31.2632 31.5405 31.471 31.415C31.6683 31.2966 31.8033 31.1293 31.8448 30.8679H31.8414Z" fill="black"/>
</svg>
