<svg width="53" height="53" viewBox="0 0 53 53" fill="none" xmlns="http://www.w3.org/2000/svg">
<path d="M49.1022 51.1254V49.1479C48.7812 48.9969 48.4392 49.0882 48.1077 49.0742C47.546 49.0496 47.3715 48.8986 47.3645 48.3366C47.354 47.5006 47.3645 46.6647 47.3645 45.7971H5.63547C5.63547 46.4399 5.63547 47.0826 5.63547 47.7254C5.63547 47.9642 5.63897 48.2066 5.6285 48.4455C5.61105 48.8529 5.40517 49.0777 4.98645 49.0742C4.63403 49.0742 4.28161 49.0742 3.90127 49.0742V51.1325C4.27114 51.1325 4.62357 51.1219 4.976 51.1325C5.33889 51.1465 5.61104 51.3081 5.61453 51.7155C5.61453 52.1159 5.35982 52.3056 4.98994 52.3091C3.86638 52.3197 2.74629 52.3197 1.62272 52.3091C1.25983 52.3091 0.987672 52.1405 0.980693 51.7331C0.973714 51.2905 1.26681 51.143 1.64715 51.1289C1.98213 51.1184 2.32059 51.1289 2.69046 51.1289V49.1444C2.47412 49.0145 2.22987 49.0812 1.99958 49.0777C1.02605 49.0672 0.970215 49.0145 0.970215 48.0169C0.970215 47.9994 0.970215 47.9818 0.970215 47.9643C0.970215 32.6817 0.970215 17.3956 0.970215 2.11306C0.970215 1.0769 1.0435 1.00314 2.06587 1.00314C2.96612 1.00314 3.86986 1.00314 4.77011 1.00314C5.46798 1.00314 5.63198 1.17173 5.63547 1.89178C5.63895 2.72774 5.63547 3.5637 5.63547 4.43478H47.2843C47.4169 4.26618 47.361 4.073 47.3645 3.89035C47.3715 3.1703 47.368 2.45377 47.368 1.73372C47.368 1.28413 47.5669 1.01016 48.031 1.00665C49.1546 0.999626 50.2746 0.996113 51.3982 1.00665C51.796 1.01016 52.0263 1.23145 52.0298 1.65294C52.0298 1.80748 52.0298 1.96203 52.0298 2.11658C52.0298 17.3991 52.0298 32.6852 52.0298 47.9678C52.0298 48.0872 52.0298 48.2066 52.0298 48.326C52.0158 48.9021 51.8658 49.0601 51.304 49.0707C50.9865 49.0777 50.6655 49.0707 50.313 49.0707V51.1254C50.641 51.1254 50.976 51.1219 51.3075 51.1254C51.7088 51.1325 52.0298 51.2659 52.0193 51.7366C52.0089 52.1756 51.7018 52.3056 51.3215 52.3091C50.2502 52.3126 49.179 52.3091 48.1077 52.3091C47.703 52.3091 47.3855 52.1651 47.389 51.7015C47.3924 51.2659 47.703 51.1325 48.0833 51.1219C48.4044 51.1149 48.7254 51.1219 49.1057 51.1219L49.1022 51.1254ZM47.3226 34.1394V5.64656H32.7931V8.172C34.8378 8.172 36.8442 8.172 38.8505 8.172C39.5833 8.172 40.2637 8.35113 40.8743 8.76559C42.3817 9.79122 43.8822 10.8204 45.3896 11.846C45.7734 12.1059 45.8327 12.4361 45.578 12.8119C44.6707 14.1572 43.767 15.4989 42.8458 16.8336C42.5353 17.2832 42.2771 17.3008 41.8165 16.9776C41.3873 16.6791 40.9581 16.384 40.5184 16.082C40.3788 16.3173 40.4347 16.5245 40.4347 16.7212C40.4312 21.4103 40.4347 26.0994 40.4347 30.7885C40.4347 31.6701 40.3091 31.7895 39.4263 31.7895C30.825 31.7895 22.2203 31.7895 13.6191 31.7895C12.6735 31.7895 12.5688 31.6842 12.5688 30.7288C12.5688 26.0573 12.5688 21.3857 12.5688 16.7107C12.5688 16.5175 12.6281 16.3068 12.4781 16.0855C12.0524 16.3805 11.6336 16.665 11.2184 16.9531C10.702 17.3148 10.4647 17.2902 10.1193 16.7845C9.22252 15.4778 8.33273 14.1642 7.44993 12.847C7.14635 12.3939 7.21265 12.1235 7.66277 11.8144C9.06898 10.852 10.4822 9.90362 11.8744 8.92717C12.6281 8.39679 13.4411 8.15443 14.3588 8.16848C16.1279 8.18956 17.8935 8.17551 19.6626 8.172C19.8406 8.172 20.0325 8.22819 20.207 8.10877V5.65008H5.68083V34.1394H47.3296H47.3226ZM13.7307 30.5848H27.9045V29.949C27.9045 25.2951 27.9045 20.6411 27.9045 15.9871C27.9045 15.4954 27.8905 15.0142 28.4104 14.7473C28.9303 14.4768 29.3176 14.7754 29.7119 15.0528C30.0469 15.2882 30.3854 15.513 30.7622 15.7694C31.4915 14.6911 32.2138 13.6268 32.9501 12.5415C31.98 11.8741 31.0204 11.284 30.1376 10.5956C29.0489 9.74907 27.9219 9.18709 26.4878 9.36622C26.1005 9.41539 25.9539 9.43647 25.8702 9.85093C25.1793 13.3072 21.2189 15.0669 18.2076 13.2685C16.7386 12.3939 15.9255 11.0662 15.6499 9.39783C14.617 9.23977 13.49 9.28895 12.9805 9.62263C11.5464 10.564 10.1332 11.5404 8.66771 12.5344C9.41442 13.6338 10.1332 14.6946 10.8625 15.7659C11.1521 15.5656 11.3754 15.4146 11.6023 15.2601C11.8256 15.1055 12.0454 14.9404 12.2792 14.8035C12.9422 14.4101 13.654 14.7824 13.7238 15.5586C13.7377 15.7132 13.7273 15.8677 13.7273 16.0188C13.7273 20.6552 13.7273 25.2916 13.7273 29.928V30.5813L13.7307 30.5848ZM11.6686 40.4652C10.6427 39.0251 11.7244 37.5288 12.9771 37.5323C16.7002 37.5429 20.4233 37.5218 24.1464 37.5429C25.4933 37.5499 26.268 38.9619 25.6294 40.1596C25.5736 40.265 25.5108 40.3634 25.455 40.4582C25.9121 41.2309 26.0621 41.8526 25.5282 42.6745C25.4654 42.7694 25.4445 42.8572 25.5142 42.9555C25.8632 43.4438 25.933 43.9882 25.7899 44.5783H30.3435V40.9886C29.7329 40.978 29.5968 40.6127 29.6212 40.0929C29.6421 39.6328 29.6212 39.1691 29.6247 38.7055C29.6282 37.9574 29.7538 37.8274 30.4761 37.8274C31.5648 37.8274 32.6535 37.8274 33.7386 37.8274C36.1358 37.8274 38.533 37.8274 40.9302 37.8274C41.5652 37.8274 41.7118 37.9819 41.7188 38.6142C41.7258 39.0251 41.7188 39.4361 41.7188 39.847C41.7188 40.4324 41.4862 40.8364 41.0209 41.0588V44.6099C42.9854 44.6099 44.9045 44.5958 46.8237 44.6204C47.2564 44.6239 47.3645 44.4905 47.3611 44.069C47.3436 41.3468 47.3436 38.6282 47.3611 35.9061C47.3645 35.4389 47.2389 35.3055 46.7678 35.3055C33.2536 35.3195 19.7394 35.316 6.22516 35.3195C6.04372 35.3195 5.85182 35.2739 5.65293 35.4003V44.5783H11.3126C11.1905 43.9179 11.2743 43.3243 11.6686 42.8326C11.1137 41.9053 11.1172 41.403 11.6616 40.4652H11.6686ZM4.43166 47.8975V2.22897H2.14265V47.8975H4.43166ZM48.5614 2.21492V47.8764H50.8399V2.21141H48.5614V2.21492ZM39.2588 30.5953V29.935C39.2588 25.2494 39.2588 20.5638 39.2588 15.8747C39.2588 15.4216 39.3286 15.0177 39.7543 14.7718C40.2114 14.5119 40.5987 14.7016 40.9755 14.972C41.3454 15.239 41.7257 15.4884 42.1305 15.7623C42.8737 14.6665 43.5821 13.6127 44.3113 12.5344C43.104 11.702 41.9211 10.9328 40.7836 10.0933C40.0334 9.53833 39.2413 9.27138 38.3167 9.33461C37.8107 9.36973 37.2978 9.33461 36.7883 9.34515C36.5999 9.34515 36.3975 9.28895 36.1707 9.43296C37.3466 10.2338 38.4807 11.0135 39.6182 11.7863C40.1276 12.134 40.187 12.3764 39.8485 12.8822C38.9727 14.1853 38.0933 15.4814 37.207 16.7774C36.8616 17.2832 36.6104 17.3148 36.1079 16.9601C35.6857 16.6615 35.2565 16.37 34.7855 16.0469V30.5918H39.2623L39.2588 30.5953ZM33.5118 30.5883C33.6235 30.3459 33.5782 30.1176 33.5782 29.8999C33.5782 25.2143 33.5816 20.5252 33.5782 15.8396C33.5782 15.3865 33.6619 14.9861 34.105 14.7578C34.5272 14.5365 34.8866 14.6911 35.239 14.9404C35.6333 15.2214 36.0381 15.4849 36.4499 15.7659C37.1966 14.663 37.9084 13.6092 38.6307 12.5379C37.2245 11.5755 35.8637 10.6412 34.4959 9.71746C34.3144 9.59453 34.105 9.47511 33.8957 9.44701C32.7895 9.29597 31.6764 9.36271 30.4203 9.35919C30.6715 9.54535 30.7971 9.64721 30.9332 9.73854C31.9416 10.4305 32.9536 11.1224 33.9655 11.8144C34.4121 12.12 34.4819 12.3939 34.1853 12.84C33.2955 14.1712 32.3987 15.4989 31.4915 16.8231C31.1809 17.2762 30.9158 17.3078 30.4656 16.9917C30.026 16.6861 29.5863 16.377 29.0839 16.0293V30.5883H33.5118ZM31.5683 41.0307V44.5431H39.7892V41.0307H31.5683ZM16.8886 9.36973C17.0386 11.3859 19.0206 12.9454 21.1735 12.7943C22.9845 12.6679 24.8129 10.9011 24.7082 9.36973H16.8886ZM18.5949 39.8787C20.3082 39.8787 22.0249 39.8787 23.7382 39.8787C23.9057 39.8787 24.0801 39.8787 24.2441 39.847C24.5058 39.7979 24.6594 39.6222 24.6803 39.3518C24.7048 39.0638 24.5861 38.846 24.3139 38.7477C24.1744 38.6985 24.0139 38.6915 23.8638 38.6915C20.3326 38.6915 16.8049 38.6915 13.2736 38.6915C13.1062 38.6915 12.9352 38.6774 12.7747 38.7547C12.5339 38.8706 12.4083 39.0638 12.4257 39.3237C12.4432 39.5836 12.5828 39.7803 12.8445 39.8365C13.0259 39.8751 13.2143 39.8751 13.3993 39.8751C15.13 39.8751 16.8607 39.8751 18.5914 39.8751L18.5949 39.8787ZM18.553 42.2249C20.2872 42.2249 22.0214 42.2249 23.7556 42.2249C23.8917 42.2249 24.0278 42.2285 24.1639 42.2144C24.4779 42.1828 24.6663 42.0072 24.6838 41.6875C24.7047 41.3468 24.5233 41.1361 24.1953 41.0729C24.0487 41.0448 23.8917 41.0553 23.7382 41.0553C20.2872 41.0553 16.8363 41.0553 13.3853 41.0553C13.2004 41.0553 13.0084 41.0553 12.8305 41.101C12.5513 41.1747 12.4083 41.3925 12.4257 41.6805C12.4432 41.965 12.6037 42.1617 12.8933 42.2074C13.0434 42.232 13.1969 42.2249 13.3504 42.2249C15.0846 42.2249 16.8188 42.2249 18.553 42.2249ZM18.5356 43.4157C16.8188 43.4157 15.1021 43.4157 13.3853 43.4157C12.7119 43.4157 12.4362 43.5807 12.4222 43.9847C12.4083 44.4097 12.6909 44.5853 13.4027 44.5853C16.8363 44.5853 20.2698 44.5853 23.7033 44.5853C23.8743 44.5853 24.0453 44.5853 24.2127 44.5607C24.5059 44.5221 24.6663 44.3394 24.6838 44.0444C24.7012 43.7283 24.5442 43.5175 24.2441 43.4402C24.1011 43.4016 23.9406 43.4157 23.787 43.4157C22.0354 43.4157 20.2837 43.4157 18.5356 43.4157ZM25.8771 5.66764H21.4247V8.14741H25.8771V5.66764ZM27.1194 5.65008V8.14741H31.5508V5.65008H27.1194ZM30.8041 39.7733H40.5464C40.5743 39.5063 40.5987 39.2745 40.5289 39.0146H30.8041V39.7733Z" fill="black" stroke="black" stroke-width="0.118743" stroke-miterlimit="10"/>
<path d="M38.9204 44.8381C43.9 44.8381 47.9368 40.7746 47.9368 35.762C47.9368 30.7494 43.9 26.6859 38.9204 26.6859C33.9407 26.6859 29.9039 30.7494 29.9039 35.762C29.9039 40.7746 33.9407 44.8381 38.9204 44.8381Z" fill="white" stroke="black" stroke-width="1.18743" stroke-miterlimit="10"/>
<path d="M38.9207 29.8292V41.6907" stroke="black" stroke-width="2.96858" stroke-miterlimit="10"/>
<path d="M44.814 35.7617H33.027" stroke="black" stroke-width="2.96858" stroke-miterlimit="10"/>
</svg>
