<svg width="258" height="94" viewBox="0 0 258 94" fill="none" xmlns="http://www.w3.org/2000/svg">
<path d="M120.112 93.2078V78.2167H128.968V79.827H121.889V84.8924H128.509V86.5028H121.889V91.5974H129.082V93.2078H120.112Z" fill="#2D2D2D"/>
<path d="M106.364 79.827V78.2167H117.369V79.827H112.755V93.2078H110.978V79.827H106.364Z" fill="#2D2D2D"/>
<path d="M95.1088 93.2078V78.2167H103.964V79.827H96.8856V84.8924H103.506V86.5028H96.8856V91.5974H104.079V93.2078H95.1088Z" fill="#2D2D2D"/>
<path d="M82.3022 93.2078V78.2167H87.2602C88.4113 78.2167 89.3523 78.429 90.0831 78.8535C90.8186 79.2732 91.3631 79.8417 91.7166 80.559C92.0701 81.2764 92.2468 82.0767 92.2468 82.9599C92.2468 83.8432 92.0701 84.646 91.7166 85.3682C91.3679 86.0904 90.8282 86.6662 90.0974 87.0957C89.3666 87.5202 88.4304 87.7325 87.2888 87.7325H83.7352V86.1221H87.2315C88.0196 86.1221 88.6525 85.9831 89.1302 85.7049C89.6078 85.4267 89.9541 85.051 90.169 84.5776C90.3888 84.0994 90.4986 83.5602 90.4986 82.9599C90.4986 82.3597 90.3888 81.8229 90.169 81.3496C89.9541 80.8762 89.6054 80.5054 89.123 80.237C88.6406 79.9637 88.0005 79.827 87.2029 79.827H84.0791V93.2078H82.3022Z" fill="#2D2D2D"/>
<path d="M72.0741 93.3253C71.7206 93.3253 71.4173 93.196 71.1641 92.9373C70.9109 92.6786 70.7843 92.3687 70.7843 92.0076C70.7843 91.6464 70.9109 91.3365 71.1641 91.0778C71.4173 90.8192 71.7206 90.6898 72.0741 90.6898C72.4276 90.6898 72.7309 90.8192 72.9841 91.0778C73.2373 91.3365 73.3639 91.6464 73.3639 92.0076C73.3639 92.2467 73.3042 92.4663 73.1848 92.6664C73.0701 92.8665 72.9149 93.0276 72.719 93.1496C72.5279 93.2667 72.313 93.3253 72.0741 93.3253Z" fill="#2D2D2D"/>
<path d="M58.0134 79.827V78.2167H69.0183V79.827H64.4043V93.2078H62.6275V79.827H58.0134Z" fill="#2D2D2D"/>
<path d="M53.975 81.9643C53.889 81.2226 53.5403 80.6467 52.9289 80.2368C52.3176 79.8269 51.5677 79.622 50.6792 79.622C50.0296 79.622 49.4612 79.7293 48.974 79.944C48.4916 80.1588 48.1143 80.454 47.842 80.8297C47.5745 81.2055 47.4408 81.6325 47.4408 82.1107C47.4408 82.5109 47.5339 82.8549 47.7202 83.1428C47.9113 83.4259 48.1549 83.6625 48.451 83.8528C48.7472 84.0383 49.0576 84.192 49.3824 84.314C49.7072 84.4311 50.0058 84.5263 50.278 84.5995L51.7683 85.0094C52.1504 85.1119 52.5755 85.2534 53.0436 85.4339C53.5164 85.6145 53.9678 85.8609 54.3977 86.1732C54.8323 86.4807 55.1906 86.876 55.4724 87.3591C55.7542 87.8422 55.8951 88.4351 55.8951 89.1378C55.8951 89.9479 55.6873 90.6798 55.2718 91.3337C54.861 91.9877 54.2592 92.5074 53.4663 92.8929C52.6782 93.2784 51.7205 93.4711 50.5933 93.4711C49.5424 93.4711 48.6325 93.2979 47.8635 92.9514C47.0993 92.605 46.4975 92.1219 46.058 91.5021C45.6234 90.8824 45.3774 90.1626 45.3201 89.3427H47.1542C47.202 89.9088 47.3883 90.3773 47.7131 90.7482C48.0426 91.1142 48.4582 91.3874 48.9597 91.568C49.466 91.7437 50.0105 91.8315 50.5933 91.8315C51.2715 91.8315 51.8805 91.7193 52.4202 91.4948C52.96 91.2654 53.3875 90.9482 53.7027 90.5432C54.018 90.1333 54.1756 89.6551 54.1756 89.1085C54.1756 88.6108 54.0395 88.2057 53.7672 87.8934C53.4949 87.5811 53.1367 87.3273 52.6925 87.1321C52.2483 86.9369 51.7683 86.7662 51.2524 86.6198L49.4469 86.0927C48.3006 85.756 47.393 85.2753 46.7243 84.6507C46.0556 84.0261 45.7213 83.2087 45.7213 82.1986C45.7213 81.3592 45.9434 80.6272 46.3876 80.0026C46.8366 79.3731 47.4384 78.8851 48.1931 78.5386C48.9525 78.1873 49.8004 78.0116 50.7365 78.0116C51.6823 78.0116 52.5229 78.1848 53.2585 78.5313C53.9941 78.8729 54.5768 79.3414 55.0067 79.9367C55.4413 80.5321 55.6706 81.2079 55.6945 81.9643H53.975Z" fill="#2D2D2D"/>
<path d="M209.158 82.9011C209 82.4083 208.792 81.9666 208.534 81.5762C208.281 81.181 207.978 80.8443 207.625 80.5661C207.276 80.288 206.879 80.0757 206.435 79.9293C205.991 79.7829 205.504 79.7097 204.974 79.7097C204.104 79.7097 203.314 79.939 202.602 80.3978C201.89 80.8565 201.324 81.5323 200.904 82.4254C200.484 83.3184 200.274 84.4139 200.274 85.712C200.274 87.01 200.486 88.1056 200.911 88.9986C201.336 89.8916 201.912 90.5675 202.638 91.0262C203.364 91.4849 204.181 91.7143 205.088 91.7143C205.929 91.7143 206.669 91.5313 207.309 91.1653C207.954 90.7944 208.456 90.2723 208.814 89.5988C209.177 88.9205 209.358 88.1227 209.358 87.2052L209.903 87.3223H205.489V85.712H211.078V87.3223C211.078 88.557 210.82 89.6305 210.304 90.5431C209.793 91.4556 209.086 92.1632 208.183 92.6658C207.285 93.1636 206.254 93.4125 205.088 93.4125C203.789 93.4125 202.647 93.1002 201.664 92.4755C200.684 91.8509 199.92 90.9628 199.371 89.8111C198.826 88.6594 198.554 87.2931 198.554 85.712C198.554 84.5262 198.709 83.4599 199.02 82.5132C199.335 81.5616 199.779 80.7515 200.352 80.083C200.926 79.4144 201.604 78.9021 202.387 78.5458C203.171 78.1896 204.033 78.0115 204.974 78.0115C205.747 78.0115 206.469 78.131 207.137 78.3701C207.811 78.6044 208.41 78.9387 208.936 79.373C209.466 79.8024 209.908 80.3172 210.261 80.9175C210.615 81.5128 210.858 82.174 210.992 82.9011H209.158Z" fill="#2D2D2D"/>
<path d="M186.221 93.2078V78.2167H191.179C192.326 78.2167 193.267 78.4168 194.002 78.8169C194.738 79.2122 195.282 79.7563 195.636 80.4492C195.989 81.1422 196.166 81.9303 196.166 82.8135C196.166 83.6968 195.989 84.48 195.636 85.1632C195.282 85.8464 194.74 86.3832 194.009 86.7736C193.278 87.1591 192.345 87.3519 191.208 87.3519H187.196V85.7122H191.151C191.934 85.7122 192.564 85.5951 193.042 85.3609C193.524 85.1266 193.873 84.7948 194.088 84.3654C194.308 83.931 194.418 83.4138 194.418 82.8135C194.418 82.2133 194.308 81.6887 194.088 81.2398C193.868 80.7908 193.517 80.4444 193.035 80.2004C192.552 79.9515 191.915 79.827 191.122 79.827H187.998V93.2078H186.221ZM193.128 86.4735L196.739 93.2078H194.676L191.122 86.4735H193.128Z" fill="#2D2D2D"/>
<path d="M180.896 78.2167H182.673V88.1424C182.673 89.1672 182.437 90.0822 181.964 90.8874C181.496 91.6877 180.834 92.3196 179.979 92.7832C179.124 93.2419 178.121 93.4713 176.97 93.4713C175.819 93.4713 174.816 93.2419 173.961 92.7832C173.106 92.3196 172.442 91.6877 171.969 90.8874C171.501 90.0822 171.267 89.1672 171.267 88.1424V78.2167H173.044V87.996C173.044 88.728 173.201 89.3795 173.517 89.9504C173.832 90.5165 174.281 90.963 174.864 91.29C175.451 91.612 176.153 91.7731 176.97 91.7731C177.787 91.7731 178.489 91.612 179.076 91.29C179.664 90.963 180.113 90.5165 180.423 89.9504C180.739 89.3795 180.896 88.728 180.896 87.996V78.2167Z" fill="#2D2D2D"/>
<path d="M158.145 93.2078V78.2167H163.275C164.297 78.2167 165.14 78.3972 165.804 78.7583C166.468 79.1146 166.962 79.5952 167.287 80.2004C167.612 80.8006 167.774 81.4667 167.774 82.1987C167.774 82.8428 167.662 83.3747 167.437 83.7944C167.217 84.2141 166.926 84.5459 166.563 84.7899C166.205 85.0339 165.816 85.2145 165.395 85.3316V85.478C165.844 85.5073 166.296 85.6683 166.749 85.9611C167.203 86.2539 167.583 86.6736 167.889 87.2201C168.194 87.7667 168.347 88.4352 168.347 89.2258C168.347 89.9773 168.18 90.6531 167.846 91.2534C167.511 91.8536 166.983 92.3294 166.262 92.6807C165.541 93.0321 164.602 93.2078 163.446 93.2078H158.145ZM159.921 91.5974H163.446C164.607 91.5974 165.431 91.368 165.918 90.9093C166.41 90.4457 166.656 89.8845 166.656 89.2258C166.656 88.7182 166.53 88.2498 166.277 87.8203C166.023 87.386 165.663 87.0396 165.195 86.7809C164.727 86.5174 164.173 86.3856 163.532 86.3856H159.921V91.5974ZM159.921 84.8046H163.217C163.752 84.8046 164.235 84.6972 164.664 84.4825C165.099 84.2678 165.443 83.9652 165.696 83.5748C165.954 83.1844 166.083 82.7257 166.083 82.1987C166.083 81.5399 165.859 80.9811 165.41 80.5224C164.961 80.0588 164.249 79.827 163.275 79.827H159.921V84.8046Z" fill="#2D2D2D"/>
<path d="M153.303 81.9642C153.217 81.2225 152.868 80.6466 152.257 80.2367C151.646 79.8268 150.896 79.6218 150.007 79.6218C149.358 79.6218 148.789 79.7292 148.302 79.9439C147.82 80.1586 147.442 80.4539 147.17 80.8296C146.903 81.2054 146.769 81.6324 146.769 82.1106C146.769 82.5108 146.862 82.8548 147.048 83.1427C147.239 83.4257 147.483 83.6624 147.779 83.8527C148.075 84.0382 148.386 84.1919 148.711 84.3139C149.035 84.431 149.334 84.5262 149.606 84.5994L151.096 85.0093C151.478 85.1117 151.904 85.2533 152.372 85.4338C152.845 85.6144 153.296 85.8608 153.726 86.1731C154.16 86.4806 154.519 86.8758 154.801 87.3589C155.082 87.8421 155.223 88.435 155.223 89.1377C155.223 89.9477 155.015 90.6797 154.6 91.3336C154.189 91.9875 153.587 92.5072 152.794 92.8928C152.006 93.2783 151.049 93.471 149.921 93.471C148.871 93.471 147.961 93.2978 147.192 92.9513C146.427 92.6048 145.826 92.1217 145.386 91.502C144.951 90.8822 144.706 90.1624 144.648 89.3426H146.482C146.53 89.9087 146.716 90.3772 147.041 90.748C147.371 91.114 147.786 91.3873 148.288 91.5679C148.794 91.7435 149.339 91.8314 149.921 91.8314C150.6 91.8314 151.209 91.7191 151.748 91.4947C152.288 91.2653 152.716 90.9481 153.031 90.5431C153.346 90.1332 153.504 89.6549 153.504 89.1084C153.504 88.6106 153.368 88.2056 153.095 87.8933C152.823 87.581 152.465 87.3272 152.021 87.132C151.576 86.9368 151.096 86.766 150.581 86.6196L148.775 86.0926C147.629 85.7559 146.721 85.2752 146.052 84.6506C145.384 84.026 145.049 83.2086 145.049 82.1984C145.049 81.3591 145.272 80.6271 145.716 80.0025C146.165 79.373 146.767 78.885 147.521 78.5385C148.281 78.1872 149.128 78.0115 150.065 78.0115C151.01 78.0115 151.851 78.1847 152.587 78.5312C153.322 78.8728 153.905 79.3412 154.335 79.9366C154.769 80.5319 154.999 81.2078 155.023 81.9642H153.303Z" fill="#2D2D2D"/>
<path d="M132.373 93.2084V78.2173H137.331C138.477 78.2173 139.418 78.4174 140.154 78.8175C140.889 79.2128 141.434 79.7569 141.787 80.4498C142.14 81.1428 142.317 81.9309 142.317 82.8142C142.317 83.6974 142.14 84.4806 141.787 85.1638C141.434 85.847 140.891 86.3838 140.161 86.7742C139.43 87.1597 138.496 87.3525 137.359 87.3525H133.347V85.7128H137.302C138.085 85.7128 138.716 85.5957 139.193 85.3615C139.676 85.1272 140.025 84.7954 140.239 84.366C140.459 83.9317 140.569 83.4144 140.569 82.8142C140.569 82.2139 140.459 81.6893 140.239 81.2404C140.02 80.7914 139.669 80.445 139.186 80.201C138.704 79.9521 138.066 79.8277 137.273 79.8277H134.15V93.2084H132.373ZM139.279 86.4741L142.89 93.2084H140.827L137.273 86.4741H139.279Z" fill="#2D2D2D"/>
<path d="M256.808 0.686643C255.576 -0.165276 253.926 0.186606 253.092 1.42745L230.07 31.4854L227.569 34.7634C227.406 34.9671 227.152 35.356 226.989 35.782C226.88 35.5042 226.699 35.2449 226.554 35.0412C226.445 34.8745 226.354 34.7634 226.3 34.7079L223.472 31.0779H223.454L200.342 1.40893C199.508 0.16809 197.84 -0.165276 196.626 0.686643C195.393 1.53856 195.085 3.2424 195.919 4.50176L223.744 40.449C223.744 40.449 220.644 49.3386 219.303 53.5427C219.212 53.8575 219.122 54.1353 219.049 54.3946C218.868 55.0798 218.777 55.8021 218.777 56.5429C218.777 61.1729 222.457 64.9324 226.989 64.9324C227.551 64.9324 228.113 64.8769 228.657 64.7473C232.391 63.9694 235.201 60.5803 235.201 56.5429C235.201 55.9132 235.146 55.3206 235.019 54.7465C234.929 54.3761 234.784 53.9501 234.639 53.4501C233.297 49.172 230.216 40.4305 230.216 40.4305L257.552 4.48324C258.367 3.22389 258.041 1.52004 256.808 0.686643ZM228.747 58.8579C228.258 59.2468 227.642 59.4691 226.989 59.4691C226.59 59.4691 226.209 59.3765 225.865 59.2468C224.487 58.6727 223.835 57.0615 224.234 55.6169C224.723 53.876 225.702 50.4498 226.355 48.1719C226.717 46.857 226.989 45.931 226.989 45.931C226.989 45.931 227.261 46.857 227.641 48.1719C228.294 50.4684 229.291 53.9501 229.744 55.6539C230.071 56.8392 229.726 58.1541 228.747 58.8579Z" fill="#2D2D2D"/>
<path d="M45.5176 0.00170898H3.98792C1.77639 0.00170898 0 1.83519 0 4.09462V26.7631C0 28.9299 0.76124 31.0042 2.15704 32.6339C2.22955 32.6895 2.28389 32.7636 2.33827 32.8376C2.12074 33.1154 1.90322 33.4303 1.66757 33.7636C0.579932 35.2638 0 37.0972 0 38.9863V60.951C0 63.2104 1.77639 65.0439 3.98792 65.0439H45.2819C46.9315 65.0439 48.2366 63.5252 47.9285 61.7844C47.6928 60.4509 46.4782 59.5435 45.1368 59.5435H5.36561V40.4123C5.40186 39.9308 5.31127 38.6529 5.63756 37.8751C5.85509 37.375 6.2538 36.838 6.90638 36.4861C7.34144 36.2453 8.61047 35.8008 8.61047 35.8008L19.8493 40.5605C22.3871 41.7272 25.2876 41.505 27.6441 39.9678C30.0007 38.4307 31.3964 35.8008 31.3964 32.9488C31.3964 30.1337 30.0187 27.5409 27.7165 25.9852C25.4324 24.4296 22.5502 24.1703 20.0124 25.263L8.68282 29.7818C8.68282 29.7818 7.34149 29.2633 6.96082 29.004C6.12696 28.4669 5.837 27.9484 5.67385 27.5594C5.34756 26.8372 5.34746 25.9852 5.34746 25.1148V5.03915L45.3725 5.50215C46.6957 5.50215 47.9285 4.57614 48.1641 3.24271C48.4542 1.50183 47.1672 0.00170898 45.5176 0.00170898ZM22.1334 30.3374C23.0035 29.967 23.9641 30.0596 24.7436 30.5782C25.5412 31.1153 25.9945 31.9857 25.9945 32.9488C25.9945 33.9303 25.5233 34.8008 24.7257 35.3193C23.9099 35.8564 22.949 35.9305 22.0789 35.523L15.3538 32.8747L22.1334 30.3374Z" fill="#2D2D2D"/>
<path d="M110.286 59.4325H66.8713V2.74283C66.8713 1.07603 65.4028 -0.238883 63.7169 0.0389171C62.4118 0.261157 61.4873 1.52052 61.4873 2.891V60.84C61.4873 63.0995 63.2821 64.9329 65.4936 64.9329H110.141C111.483 64.9329 112.715 64.0069 112.951 62.655C113.223 60.9326 111.917 59.4325 110.286 59.4325Z" fill="#2D2D2D"/>
<path d="M178.934 0.00184042C177.447 0.00184042 176.233 1.22416 176.233 2.7428V54.8951L129.936 0.927839C129.211 0.0759203 128.032 -0.220399 126.981 0.168521C125.93 0.57596 125.241 1.59456 125.241 2.7428V62.1919C125.241 63.6921 126.437 64.9329 127.924 64.9329C129.41 64.9329 130.606 63.6921 130.606 62.1919V10.0397L176.904 63.9884C177.429 64.5995 178.173 64.9329 178.934 64.9329C179.242 64.9329 179.55 64.8773 179.877 64.7662C180.91 64.3588 181.617 63.3402 181.617 62.1919V2.7428C181.617 1.22416 180.402 0.00184042 178.934 0.00184042Z" fill="#2D2D2D"/>
</svg>
