<svg width="116" height="38" viewBox="0 0 116 38" fill="none" xmlns="http://www.w3.org/2000/svg">
<path d="M3.97443 36.5347C3.31875 36.4655 2.68316 36.1804 2.19643 35.7119C1.80624 35.3372 1.53273 34.8484 1.42009 34.3148C1.40803 34.2578 1.3678 33.6264 1.3678 33.6264H2.25678C2.32114 34.27 2.51018 34.8688 3.09346 35.2517C3.48365 35.5083 3.91409 35.6101 4.37669 35.5857C5.44268 35.5246 5.92538 35.0276 6.27132 33.6183H7.15632C7.1885 34.27 7.39364 34.8403 7.94071 35.2272C8.35101 35.5164 8.80959 35.6183 9.30035 35.5857C10.3704 35.5124 10.9576 34.8891 11.1387 33.6264H12.0196C12.0438 33.769 12.0679 33.9238 12.096 34.0745C12.2851 35.0358 13.0776 35.6264 14.1114 35.5897C15.121 35.5531 15.8692 34.8973 15.9698 33.9279C15.9819 33.7894 15.9859 33.6183 15.9859 33.6183C15.9859 33.6183 16.71 33.602 16.9151 33.602C16.9594 34.2659 17.1525 34.828 17.6875 35.215C18.0857 35.5001 18.5322 35.6142 19.0149 35.5857C20.1211 35.5246 20.6883 34.9421 20.9096 33.6224H21.7985C21.8468 34.2619 22.0319 34.8403 22.587 35.2232C23.0054 35.5164 23.476 35.6223 23.9788 35.5816C25.0488 35.492 25.6281 34.8647 25.7809 33.6264H26.69C26.7343 34.3963 27.0159 35.0276 27.7882 35.3983C27.7962 35.2598 27.8043 35.1661 27.8043 35.0724C27.8043 33.215 27.7963 31.3577 27.8124 29.4962C27.8124 29.2029 27.7279 29.1377 27.4503 29.1377C21.8267 29.1459 16.2072 29.1459 10.5836 29.1459C10.4589 29.1459 10.3342 29.1459 10.1773 29.1459C10.1693 29.0074 10.1572 28.8933 10.1572 28.7793C10.1572 27.1581 10.1572 25.537 10.1572 23.9158C10.1572 23.4963 10.1572 23.4963 10.5675 23.4963C16.7381 23.4963 22.9048 23.4963 29.0755 23.4963C29.3544 23.4963 29.4938 23.3592 29.4938 23.0849C29.4938 20.8813 29.4938 18.6777 29.4938 16.474V16.136H30.415V23.48C30.5517 23.4882 30.6563 23.5004 30.7609 23.5004C31.8631 23.5004 32.9653 23.5085 34.0715 23.4922C34.2243 23.4922 34.4135 23.4067 34.518 23.2926C40.3709 16.9954 46.2117 10.6941 52.0566 4.39282C52.5111 3.90403 52.9656 3.41931 53.4403 2.91016C54.635 3.92847 55.8096 4.93048 57.0164 5.96101C56.936 6.07099 56.8636 6.17282 56.7871 6.27058C52.5111 11.7898 48.2351 17.3091 43.9671 22.8324C42.7965 24.3435 42.4104 26.0584 42.9132 27.9076C43.0661 28.4657 43.0861 28.9952 43.0861 29.541C43.0982 31.4473 43.0942 33.3576 43.0861 35.2639C43.0861 35.5286 43.1586 35.602 43.416 35.5938C44.5222 35.5572 45.1859 34.8891 45.3307 33.6224H46.2238C46.2439 33.7364 46.264 33.8586 46.2801 33.9849C46.4209 34.9584 47.2093 35.602 48.2512 35.5897C49.2729 35.5816 50.0694 34.9177 50.1619 33.9564C50.19 33.655 50.1901 33.6183 50.1901 33.6183H51.1475L51.1675 34.0338C51.3486 34.991 52.1169 35.606 53.1226 35.5938C54.1523 35.5816 54.8764 34.9828 55.0453 34.0012C55.0654 33.8831 55.0815 33.769 55.1057 33.6264H55.9987C56.051 34.2619 56.236 34.8403 56.7871 35.2272C57.1693 35.4961 57.5997 35.606 58.0623 35.5897C59.1564 35.5531 59.6834 35.0195 60.0052 33.6183L60.8861 33.6305C60.8861 33.6305 60.9264 34.0134 60.9827 34.213C61.224 35.0887 62.0085 35.6386 62.9618 35.5938C63.9514 35.549 64.6634 34.9502 64.8203 34.0256C64.8404 33.8993 64.8565 33.7731 64.8806 33.6224H65.7776C65.8138 34.2578 66.0109 34.8281 66.554 35.2191C66.9361 35.492 67.3625 35.602 67.8251 35.5897C68.9193 35.5612 69.4583 35.0236 69.7801 33.6224H70.6289C70.6973 33.8993 70.7335 34.1763 70.83 34.4289C71.2524 35.5409 72.5758 35.8178 73.493 35.4146C73.5654 35.382 73.6217 35.2272 73.6257 35.1295C73.6378 34.4492 73.6338 33.7649 73.6338 33.0847C73.6338 31.8994 73.6257 30.7141 73.6378 29.5247C73.6459 28.987 73.6418 28.4656 73.8108 27.9198C74.2331 26.5472 74.0602 25.1785 73.4206 23.8914C73.2194 23.4882 72.97 23.1012 72.6965 22.7468C68.4044 17.1909 64.1042 11.6432 59.8041 6.09136C59.78 6.05877 59.7598 6.02618 59.7156 5.95694C60.8982 4.95085 62.0768 3.94069 63.2876 2.91016C63.6537 3.30119 64.0077 3.67593 64.3577 4.05474C68.7584 8.80006 73.1631 13.5454 77.5638 18.2907C79.1125 19.9607 80.6612 21.6348 82.214 23.3008C82.2984 23.3904 82.4392 23.4841 82.5519 23.4882C83.7506 23.5004 84.9534 23.4963 86.1521 23.4922C86.1883 23.4922 86.2245 23.4759 86.2969 23.4596V16.1319H87.2301C87.2301 16.2622 87.2301 16.3763 87.2301 16.4903C87.2301 18.6736 87.2301 20.8568 87.2301 23.0442C87.2301 23.3456 87.375 23.4963 87.6646 23.4963C93.8232 23.4963 99.9818 23.4963 106.14 23.4963C106.438 23.4963 106.587 23.6443 106.587 23.9403C106.587 25.5533 106.587 27.1622 106.587 28.7752V29.1255C106.438 29.1337 106.313 29.1418 106.193 29.1418C100.561 29.1418 94.9294 29.1418 89.2978 29.1418C89.043 29.1418 88.9156 29.2694 88.9156 29.5247C88.9156 31.154 88.9156 32.7874 88.9156 34.4167C88.9156 34.5103 88.9156 34.604 88.9156 34.6977C88.9559 34.7059 88.992 34.714 89.0323 34.7221C89.1368 34.3678 89.2414 34.0093 89.3541 33.6224H90.1948C90.2149 33.7609 90.235 33.9075 90.2632 34.0501C90.4362 35.0032 91.2367 35.6142 92.2664 35.5897C93.2761 35.5653 94.0284 34.9095 94.1531 33.9482C94.1651 33.8464 94.1651 33.7079 94.1852 33.6264H95.1064C95.0903 35.4513 96.7999 35.9197 97.9544 35.4146C98.7066 35.0847 99.0325 34.4533 99.0727 33.6264H99.9617C100.235 34.9991 100.839 35.5897 101.965 35.5938C103.087 35.5979 103.679 35.0236 103.984 33.602H104.865C104.917 34.2822 105.115 34.8729 105.702 35.2598C106.092 35.5164 106.527 35.6142 106.985 35.5897C108.043 35.5327 108.53 35.0276 108.88 33.6224H109.733C110.002 35.0032 110.626 35.602 111.772 35.5938C112.89 35.5857 113.494 34.9869 113.755 33.6061C113.997 33.6061 114.25 33.5898 114.495 33.6183C114.552 33.6264 114.636 33.7812 114.632 33.8627C114.616 34.3759 114.451 34.8769 114.169 35.3005C113.888 35.7242 113.49 36.0622 113.031 36.274C112.894 36.3351 112.754 36.3881 112.609 36.4248C112.396 36.4777 112.19 36.547 111.969 36.5673C111.635 36.5999 111.309 36.5429 110.992 36.4533C110.851 36.4166 110.714 36.3718 110.581 36.3148C110.316 36.2048 110.066 36.0622 109.845 35.8789C109.757 35.8056 109.672 35.7282 109.592 35.6427C109.495 35.5368 109.403 35.4268 109.29 35.2965C109.31 35.3209 109.025 35.6305 108.992 35.659C108.884 35.769 108.771 35.8749 108.642 35.9645C108.377 36.1518 108.095 36.3066 107.798 36.4329C107.568 36.5307 107.339 36.6121 107.086 36.6203C106.792 36.6284 106.478 36.6203 106.197 36.547C105.992 36.494 105.798 36.4003 105.613 36.3026C105.231 36.0989 104.857 35.8504 104.584 35.5042C104.531 35.439 104.471 35.382 104.403 35.3046C103.964 35.9115 103.393 36.2781 102.717 36.4981C102.291 36.604 101.913 36.6284 101.205 36.4981C100.521 36.27 99.9657 35.883 99.5273 35.2883C99.1652 35.7853 98.7428 36.1193 98.2199 36.3229C98.0148 36.4044 97.8015 36.4777 97.5964 36.5592H96.6591C96.5385 36.5184 96.4218 36.4696 96.3011 36.437C95.738 36.2903 95.2592 36.0011 94.869 35.5694C94.7926 35.4879 94.7283 35.3983 94.6921 35.3535C94.4829 35.5368 94.2978 35.6997 94.1168 35.8626C93.7669 36.1763 93.2842 36.384 92.8336 36.4899C91.7154 36.7547 90.4161 36.2496 89.7684 35.2842C89.5512 35.5123 89.3661 35.7323 89.157 35.9115C88.3042 36.6488 87.0894 36.6977 86.0877 36.2822C85.8866 36.1967 85.6935 36.0907 85.5246 35.9523C85.2953 35.7608 85.0861 35.5409 84.9131 35.3739C84.4143 35.7445 83.9437 36.1885 83.3523 36.4003C82.8173 36.5918 82.218 36.6162 81.6709 36.4492C81.6025 36.4288 81.5301 36.4044 81.4617 36.38C80.8584 36.1885 80.3797 35.826 80.0096 35.3168C79.7723 35.5409 79.5631 35.7608 79.3338 35.9523C78.477 36.6691 77.234 36.7017 76.2525 36.2496C75.8864 36.0826 75.5606 35.8382 75.2991 35.5286C75.2388 35.4553 75.1744 35.3861 75.1543 35.3616C74.6314 35.7527 74.1527 36.1967 73.5252 36.4085C72.958 36.604 72.3264 36.604 71.7592 36.4044C71.3972 36.2781 71.0311 36.1152 70.7415 35.8545C70.5525 35.6875 70.3795 35.5083 70.1864 35.3209C70.2065 35.3413 69.8364 35.7201 69.8002 35.7527C69.6514 35.8912 69.4945 36.0093 69.3175 36.107C68.9474 36.3107 68.5452 36.4614 68.1268 36.5184C67.1614 36.6529 66.1035 36.2374 65.488 35.4716C65.4398 35.4105 65.4075 35.3413 65.4116 35.3494C64.9128 35.7079 64.4421 36.1437 63.8629 36.3596C62.7848 36.7669 61.4936 36.4451 60.7092 35.5979C60.6207 35.5001 60.5362 35.4024 60.504 35.3657C60.1219 35.6386 59.7598 35.9441 59.3616 36.1844C58.9633 36.4248 58.4927 36.5429 58.0502 36.547C57.5836 36.551 57.1129 36.4411 56.6946 36.2374C56.4975 36.1437 56.3004 36.0256 56.1274 35.8912C55.9142 35.7201 55.7292 35.492 55.5361 35.3005C55.0775 35.9767 54.2971 36.384 53.4966 36.5225C53.4001 36.5388 53.3036 36.551 53.203 36.5551C52.7323 36.5714 52.2014 36.4329 51.779 36.2292C51.3727 36.0337 51.0228 35.7364 50.7452 35.3779C50.7251 35.3494 50.6889 35.3372 50.6487 35.3128C50.6849 35.3372 50.0855 35.9075 50.0251 35.9523C49.7958 36.1233 49.5344 36.2578 49.2689 36.3596C48.7178 36.5673 48.1064 36.604 47.5352 36.4614C46.8272 36.2903 46.2278 35.8871 45.7934 35.2965C45.7129 35.3902 45.6485 35.4594 45.5842 35.5327C45.0813 36.1111 44.3412 36.4655 43.589 36.5388C42.8086 36.6121 41.984 36.3392 41.3886 35.826C41.2116 35.6753 41.0427 35.5124 40.8616 35.3454C40.8777 35.3372 40.8577 35.3453 40.8456 35.3535C40.8174 35.382 40.7973 35.4146 40.7732 35.4431C40.1336 36.2455 39.0635 36.6691 38.0579 36.5184C37.2132 36.3922 36.6218 35.8504 35.9541 35.3698C35.9501 35.3739 35.8937 35.4309 35.8455 35.4879C35.411 36.0174 34.8398 36.3066 34.1882 36.4696C34.0393 36.5062 33.8865 36.5388 33.7336 36.551C33.5405 36.5673 33.3475 36.547 33.1584 36.5103C32.7883 36.4451 32.4223 36.3229 32.1005 36.1233C31.7585 35.9156 31.4528 35.6427 31.127 35.4064C31.0988 35.3861 30.6121 35.7893 30.5598 35.8301C30.3908 35.9604 30.2179 36.0826 30.0328 36.1885C29.6507 36.3962 29.2283 36.5266 28.7938 36.5429C27.8847 36.5795 26.9475 36.16 26.3763 35.4472C26.336 35.3942 26.3079 35.3331 26.2556 35.2435C26.2757 35.2761 26.0062 35.5572 25.974 35.5897C25.8734 35.6956 25.7689 35.7975 25.6562 35.8871C25.439 36.0622 25.1936 36.1967 24.9362 36.3066C24.369 36.5388 23.7294 36.5918 23.1341 36.4573C22.5065 36.3189 21.9233 35.9645 21.5089 35.4675C21.4607 35.4105 21.4084 35.3576 21.34 35.2883C21.3722 35.325 20.9055 35.773 20.8573 35.8178C20.6763 35.9726 20.4751 36.107 20.2619 36.2129C19.7953 36.441 19.2442 36.5836 18.7293 36.5347C17.8725 36.4533 17.0841 36.0663 16.5491 35.3739C16.529 35.3453 16.4928 35.3291 16.4525 35.3005C16.0583 35.8301 15.5676 36.1967 14.9481 36.38C14.5056 36.5103 14.0872 36.5755 13.6246 36.5103C13.0052 36.4207 12.4058 36.1396 11.9472 35.7038C11.8185 35.5775 11.7018 35.435 11.5691 35.2883C11.1226 35.8871 10.5353 36.2618 9.81928 36.4492C9.66642 36.4899 9.50953 36.5225 9.35265 36.5347C8.38722 36.6203 7.38157 36.1478 6.79025 35.3902C6.76209 35.3576 6.72186 35.3331 6.67761 35.3005C6.71783 35.3291 6.14261 35.8626 6.0863 35.9075C5.86103 36.0785 5.61165 36.2211 5.35018 36.327C4.90769 36.5062 4.43301 36.5673 3.97041 36.5184L3.97443 36.5347ZM74.8285 28.1887H105.642V24.4331H105.324C97.6728 24.4331 90.0178 24.4331 82.3668 24.4372C82.1134 24.4372 81.9364 24.372 81.7554 24.1806C75.6491 17.586 69.5348 10.9996 63.4244 4.40911C63.3681 4.34801 63.3037 4.29098 63.2193 4.21359C62.4831 4.84087 61.7631 5.45593 61.0229 6.09136C61.0993 6.19726 61.1597 6.2828 61.224 6.36834C62.1734 7.59845 63.1268 8.8245 64.0761 10.0546C67.2016 14.0912 70.3232 18.1278 73.4527 22.1562C74.4021 23.3782 74.9411 24.7509 74.9612 26.3028C74.9693 26.9178 74.8768 27.537 74.8245 28.1887H74.8285ZM41.9518 28.1887C41.9639 28.152 41.9799 28.1316 41.9759 28.1154C41.9598 28.0094 41.9357 27.9035 41.9196 27.7936C41.5535 25.7773 41.9518 23.9321 43.1948 22.3151C45.9663 18.7062 48.7661 15.1136 51.5497 11.5128C52.8852 9.78578 54.2207 8.05873 55.5643 6.33982C55.7131 6.14838 55.7091 6.04248 55.516 5.89177C55.154 5.60664 54.812 5.29707 54.4621 4.99973C54.1563 4.74311 53.8506 4.48243 53.4886 4.17693C53.4122 4.28284 53.3639 4.3806 53.2915 4.45799C52.6076 5.20339 51.9157 5.94472 51.2279 6.68605C45.8376 12.4945 40.4473 18.307 35.0611 24.1195C34.8519 24.3435 34.6467 24.4413 34.333 24.4413C26.7705 24.4331 19.208 24.4331 11.6415 24.4331C11.4685 24.4331 11.2996 24.4331 11.1226 24.4331V28.1846H41.9518V28.1887ZM75.5525 33.5979C75.7617 34.9054 76.3168 35.4961 77.3868 35.5816C77.8816 35.6223 78.3402 35.5164 78.7505 35.2354C79.3137 34.8484 79.5108 34.2659 79.551 33.6142H80.448C80.5044 34.16 80.621 34.6773 81.0394 35.0602C81.4497 35.439 81.9405 35.5979 82.4875 35.5897C82.9381 35.5816 83.3524 35.4513 83.7144 35.1743C84.2212 34.7873 84.3902 34.2334 84.4385 33.6183C84.7522 33.6183 85.3636 33.6142 85.3636 33.6142C85.3918 34.8606 86.4297 35.7527 87.7089 35.5653C87.91 35.5368 88.0186 35.4757 88.0146 35.2354C88.0065 33.3006 88.0065 31.3617 88.0146 29.4269C88.0146 29.1988 87.9381 29.1459 87.7249 29.1459C83.4408 29.15 79.1568 29.15 74.8727 29.1459C74.6394 29.1459 74.5751 29.2151 74.5751 29.4514C74.5831 30.7752 74.5751 32.099 74.5791 33.4228C74.5791 33.5205 74.5951 33.6142 74.5992 33.6875C74.9089 33.5328 75.2267 33.6387 75.5485 33.6061L75.5525 33.5979ZM28.7577 35.5612C29.715 35.5938 30.5839 34.9421 30.6563 34.0093C30.6603 33.936 30.6603 33.6264 30.6603 33.6264H31.6056C31.6298 34.6651 32.3418 35.492 33.3997 35.5816C34.4456 35.6753 35.2944 35.0643 35.4995 34.0704C35.5317 33.9197 35.5558 33.7649 35.584 33.6101H36.469C36.5173 34.1397 36.6339 34.6366 37.0201 35.0154C37.4103 35.4024 37.8849 35.5735 38.424 35.5816C38.8866 35.5897 39.313 35.4798 39.6911 35.2028C40.2261 34.8158 40.4111 34.2456 40.4594 33.6142H41.3604C41.4007 34.2456 41.5737 34.7995 42.1368 35.2028C42.1529 35.0969 42.165 35.0439 42.165 34.9869C42.165 33.1214 42.1609 31.2517 42.169 29.3862C42.169 29.1214 42.0242 29.1377 41.8512 29.1377C37.5873 29.1377 33.3233 29.1377 29.0594 29.1337C28.7979 29.1337 28.7295 29.2111 28.7335 29.4677C28.7456 31.3943 28.7375 33.3209 28.7416 35.2476C28.7416 35.3453 28.7496 35.439 28.7536 35.5531L28.7577 35.5612Z" fill="black" stroke="black" stroke-width="0.949946" stroke-miterlimit="10"/>
<path d="M80.2833 15.5537C80.054 15.7777 79.8449 15.9773 79.6075 16.2054C75.0982 11.346 70.6089 6.50702 66.0996 1.64764C66.3329 1.42362 66.5421 1.22403 66.7795 1C71.2848 5.8553 75.774 10.6943 80.2833 15.5537Z" fill="black" stroke="black" stroke-width="0.949946" stroke-miterlimit="10"/>
<path d="M50.0132 1.31726C50.2506 1.54129 50.4598 1.74088 50.6971 1.96083C46.1918 6.81613 41.7066 11.6511 37.1892 16.5227C36.9639 16.3068 36.7467 16.1031 36.5094 15.875C41.0107 11.0197 45.4959 6.18885 50.0132 1.31726Z" fill="black" stroke="black" stroke-width="0.949946" stroke-miterlimit="10"/>
</svg>
