<svg width="48" height="48" viewBox="0 0 48 48" fill="none" xmlns="http://www.w3.org/2000/svg">
<g clip-path="url(#clip0_36_151)">
<path d="M1.49985 21.4661C0.0163739 21.3908 0.00327477 21.3777 0.00327477 19.9368C0.00327477 16.2036 0.00327477 12.4671 0.00327477 8.73382C0.00327477 7.88565 0.232509 7.65969 1.08067 7.65969C2.23012 7.65969 3.37629 7.65969 4.51591 7.65969C4.65672 7.4894 4.5945 7.30602 4.5945 7.139C4.59778 5.09554 4.5945 3.05536 4.59778 1.0119C4.60105 0.255432 4.85321 0 5.59986 0C17.6936 0 29.7906 0 41.8876 0C42.6441 0 42.8995 0.252157 42.8995 0.998805C42.8995 3.02589 42.8995 5.05297 42.8995 7.08006C42.8995 7.25362 42.8995 7.42718 42.8995 7.66297C43.6723 7.66297 44.4157 7.66297 45.1591 7.66297C45.6208 7.66297 46.0859 7.66297 46.5476 7.66297C47.2288 7.66952 47.494 7.93477 47.494 8.62902C47.494 12.156 47.494 15.6829 47.494 19.2098C47.494 19.6421 47.4973 20.0711 47.494 20.5033C47.4875 21.1845 47.2189 21.4432 46.528 21.453C46.3544 21.453 46.1841 21.453 45.9876 21.453V41.3145C46.2037 41.4324 46.4461 41.3538 46.6753 41.3702C47.1862 41.4029 47.4842 41.6747 47.4875 42.1823C47.5006 43.6822 47.4973 45.182 47.4875 46.6819C47.4842 47.1927 47.1894 47.4711 46.6819 47.4973C46.5541 47.5038 46.4264 47.4973 46.2987 47.4973C31.2675 47.4973 16.233 47.4973 1.20184 47.4973C0.186662 47.4973 0 47.3106 0 46.3053C0 45.0281 0 43.7509 0 42.4738C0 41.5896 0.21286 41.3735 1.09377 41.3669C1.21821 41.3669 1.34593 41.3669 1.4933 41.3669V21.4661H1.49985ZM44.4124 21.4825H3.09138V41.3342H16.8552V40.7414C16.8552 35.1874 16.8552 29.6334 16.8552 24.0827C16.8552 23.2018 17.0747 22.9823 17.9556 22.9823C21.8165 22.9823 25.6808 22.9823 29.5417 22.9823C30.4226 22.9823 30.6453 23.205 30.6453 24.0827C30.6453 29.6531 30.6453 35.2202 30.6453 40.7906C30.6453 40.9739 30.5864 41.1704 30.7043 41.344H44.4092V21.4858L44.4124 21.4825ZM29.08 41.344V24.551H18.4173V41.344H29.08ZM45.945 42.929H1.57189V45.9385H45.9418V42.929H45.945ZM6.1533 10.6921H41.3309V1.55552H6.1533V10.6921ZM7.64332 12.2575C6.93269 12.2575 6.26464 12.2575 5.59986 12.2575C4.85321 12.2575 4.60105 12.002 4.59778 11.2488C4.59778 10.571 4.59778 9.89308 4.59778 9.21521H1.55879V19.8877H7.64332V12.2542V12.2575ZM45.945 9.22831H42.8995V10.5972C42.8995 12.2444 42.8831 12.2575 41.2588 12.2575H39.8605V19.891H45.945V9.22831ZM9.20538 19.8877H13.7573V12.2968H9.20538V19.8877ZM19.891 19.9073V12.2902H15.3652V19.9073H19.891ZM26.0181 19.8942V12.2935H21.476V19.8942H26.0181ZM27.6161 12.2804V19.8811H32.1517V12.2804H27.6161ZM38.2854 12.2935H33.7465V19.8942H38.2854V12.2935Z" fill="black"/>
<path d="M15.323 31.4084C15.323 33.8645 15.323 36.3238 15.323 38.7799C15.323 39.5921 15.084 39.8344 14.2686 39.8344C11.3966 39.8344 8.52462 39.8344 5.65264 39.8344C4.8405 39.8344 4.60144 39.5953 4.60144 38.7799C4.60144 33.8645 4.60144 28.9491 4.60144 24.0336C4.60144 23.2182 4.83722 22.9824 5.65592 22.9824C8.52789 22.9824 11.3999 22.9824 14.2718 22.9824C15.0873 22.9824 15.3263 23.2215 15.3263 24.0369C15.3263 26.493 15.3263 28.9523 15.3263 31.4084H15.323ZM6.15041 38.2691H13.7512V24.5412H6.15041V38.2691Z" fill="black"/>
<path d="M42.8998 31.405C42.8998 33.8611 42.8998 36.3204 42.8998 38.7765C42.8998 39.5919 42.6608 39.831 41.8486 39.831C38.9766 39.831 36.1047 39.831 33.2327 39.831C32.4173 39.831 32.1782 39.5919 32.1782 38.7798C32.1782 33.8643 32.1782 28.9489 32.1782 24.0335C32.1782 23.2148 32.414 22.979 33.2294 22.979C36.1014 22.979 38.9734 22.979 41.8453 22.979C42.6608 22.979 42.8998 23.2181 42.8998 24.0302C42.8998 26.4863 42.8998 28.9456 42.8998 31.4017V31.405ZM41.3345 38.282V24.5542H33.7337V38.282H41.3345Z" fill="black"/>
<path d="M27.5809 32.9348C27.5809 33.7667 26.8996 34.461 26.0678 34.4709C25.2359 34.4807 24.535 33.7995 24.5186 32.9676C24.5022 32.1095 25.1998 31.4053 26.0547 31.4086C26.8865 31.4086 27.5776 32.0996 27.5809 32.9348Z" fill="black"/>
<path d="M31.8077 7.24007V9.07939H31.0552V7.22487L28.9423 3.75903H29.7555L31.458 6.56362L33.1681 3.75903H33.9206L31.8077 7.24007Z" fill="black"/>
<path d="M28.1793 3.75903V9.07939H27.556L24.3638 5.11192V9.07939H23.6038V3.75903H24.227L27.4192 7.7265V3.75903H28.1793Z" fill="black"/>
<path d="M19.0912 3.75903H19.8512V8.41815H22.7318V9.07939H19.0912V3.75903Z" fill="black"/>
<path d="M17.8611 8.41815V9.07939H14V3.75903H17.7547V4.42028H14.7601V6.05439H17.4278V6.70043H14.7601V8.41815H17.8611Z" fill="black"/>
</g>
<defs>
<clipPath id="clip0_36_151">
<rect width="47.4973" height="47.4973" fill="white" transform="translate(0.251343 0.314209)"/>
</clipPath>
</defs>
</svg>
