<svg width="33" height="49" viewBox="0 0 33 49" fill="none" xmlns="http://www.w3.org/2000/svg">
<path d="M4.35469 48.3743C3.38187 48.1351 2.4896 47.7522 1.79685 46.9888C1.07188 46.1883 0.680273 45.2526 0.653009 44.1769C0.631941 43.3429 0.645573 42.5076 0.645573 41.6724C0.645573 29.5833 0.645573 17.4931 0.645573 5.40406C0.645573 3.36547 1.72497 1.76558 3.51819 1.13231C3.98787 0.966252 4.47118 0.879503 4.97061 0.879503C10.8298 0.879503 16.6891 0.872068 22.5483 0.883221C24.9946 0.888178 26.8659 2.75575 26.892 5.19586C26.9093 6.8193 26.8982 8.44273 26.8944 10.0662C26.8944 10.6114 26.6106 10.9547 26.1719 10.9684C25.7147 10.9832 25.4123 10.63 25.411 10.0612C25.4073 8.49974 25.4123 6.93827 25.4086 5.37679C25.4048 3.54764 24.2213 2.36538 22.3848 2.36538C16.6494 2.3629 10.9141 2.3629 5.17756 2.36538C3.30751 2.36538 2.13145 3.53896 2.13145 5.40158C2.13145 18.2181 2.13021 31.0333 2.13145 43.8498C2.13145 45.7149 3.30751 46.8872 5.17632 46.8872C10.9116 46.8872 16.647 46.8872 22.3835 46.8872C24.2176 46.8872 25.4061 45.7062 25.4086 43.8783C25.4123 42.0256 25.4086 40.1729 25.4086 38.3412C25.2574 38.2123 25.1136 38.2656 24.9822 38.2743C23.8186 38.3437 22.6661 38.2247 21.516 38.0711C21.0538 38.0091 20.7601 37.6572 20.8047 37.2532C20.8518 36.833 21.1864 36.548 21.6598 36.5988C22.7516 36.7153 23.8396 36.8529 24.9414 36.7835C26.0034 36.7166 26.9229 36.346 27.6516 35.5492C27.8722 35.3087 28.068 35.0522 28.2142 34.7598C28.6368 33.9146 28.5699 33.1252 27.9181 32.4485C26.7618 31.2452 25.5746 30.0691 24.3837 28.8993C23.9214 28.4457 23.3873 28.4841 22.909 28.9662C22.0824 29.8002 21.257 30.6367 20.449 31.4906C20.1219 31.8363 19.76 31.9516 19.2891 31.9132C15.8972 31.638 13.2055 29.4111 12.4768 26.251C12.4149 25.9808 12.3864 25.7032 12.338 25.4293C12.2141 24.7304 12.4409 24.1616 12.9478 23.6758C13.6963 22.9595 14.4299 22.2283 15.1685 21.5033C15.8513 20.8341 15.86 20.362 15.1908 19.6903C13.8921 18.3866 12.5921 17.0854 11.2896 15.7866C10.7022 15.2004 10.2561 15.1918 9.64015 15.7296C7.74656 17.3815 7.13436 19.5032 7.45905 21.9185C7.88536 25.0861 9.44559 27.7368 11.4235 30.1621C13.2712 32.4275 15.4362 34.3124 18.1564 35.4884C18.6013 35.6805 18.7611 36.0845 18.6 36.4737C18.4352 36.8715 18.0126 37.0313 17.5454 36.8355C15.8737 36.1391 14.3878 35.1427 13.0357 33.9518C10.0119 31.2886 7.66353 28.152 6.45153 24.2644C5.71416 21.8999 5.59767 19.5292 6.66964 17.2093C7.19261 16.0791 7.97582 15.1484 8.93873 14.3751C9.85455 13.639 11.2029 13.6563 12.048 14.4718C13.5723 15.9415 15.0731 17.4386 16.5391 18.9653C17.4314 19.8948 17.3831 21.3298 16.4735 22.2853C15.7807 23.0128 15.0595 23.7142 14.3122 24.3859C13.8673 24.7862 13.7781 25.2013 13.8871 25.7788C14.3407 28.1805 16.6147 30.2302 19.0548 30.3963C19.3114 30.4137 19.4873 30.3505 19.6633 30.1658C20.3672 29.4272 21.0848 28.701 21.7998 27.9735C22.9337 26.821 24.3874 26.8037 25.5275 27.9351C26.6243 29.0244 27.7185 30.1162 28.8054 31.2155C30.2045 32.6307 30.3383 34.4276 29.161 36.0449C28.6443 36.755 28.0036 37.3362 27.2067 37.7129C26.9527 37.8331 26.8845 37.9794 26.8858 38.2421C26.8957 40.0514 26.8907 41.8595 26.8907 43.6688C26.8907 46.2031 25.7085 47.715 23.2547 48.3223C23.2274 48.3285 23.2051 48.357 23.1816 48.3756H4.35469V48.3743Z" fill="black"/>
<path d="M20.0995 11.894C21.1702 12.0452 22.2719 12.3464 23.3117 12.8334C27.9354 14.9996 30.9951 18.4832 32.2232 23.4911C32.274 23.7005 32.3149 23.9136 32.3471 24.1268C32.4178 24.6027 32.1588 24.9893 31.73 25.0612C31.3322 25.1281 30.9629 24.8542 30.8848 24.3883C30.5787 22.543 29.8822 20.8539 28.8127 19.3296C26.7233 16.3517 23.9945 14.2697 20.3907 13.453C20.1949 13.4084 19.9941 13.3861 19.8021 13.3316C19.3906 13.2151 19.1626 12.8755 19.2283 12.5037C19.2977 12.1121 19.6025 11.8791 20.0995 11.8928V11.894Z" fill="black"/>
<path d="M27.7544 24.5881C27.7345 24.9586 27.5511 25.2213 27.162 25.2883C26.7605 25.3589 26.4606 25.1966 26.3255 24.8037C26.1508 24.2931 26.002 23.7726 25.7567 23.2906C24.4393 20.703 22.4379 18.9122 19.6397 18.0547C19.0758 17.8812 18.8193 17.5441 18.9333 17.1029C19.051 16.6456 19.4724 16.4535 20.0548 16.6394C23.8705 17.8527 26.4036 20.3709 27.6713 24.1642C27.7011 24.251 27.7209 24.3427 27.7395 24.4319C27.7494 24.4765 27.7482 24.5236 27.7544 24.5868V24.5881Z" fill="black"/>
<path d="M13.7197 5.8924C12.2685 5.8924 10.8173 5.89488 9.36616 5.8924C8.7899 5.89116 8.44291 5.60365 8.44662 5.14512C8.45034 4.69031 8.79981 4.40776 9.37855 4.40652C12.297 4.40404 15.2155 4.40404 18.1327 4.40652C18.7139 4.40652 19.0646 4.68288 19.0758 5.13397C19.0882 5.60365 18.73 5.89116 18.1203 5.8924C16.653 5.89488 15.187 5.8924 13.7197 5.8924Z" fill="black"/>
<path d="M13.7385 45.2339C13.3679 45.2339 12.9974 45.2451 12.628 45.2302C12.2128 45.2129 11.9761 44.9749 11.924 44.5696C11.8744 44.1817 12.131 43.8024 12.5388 43.7826C13.3543 43.7429 14.1736 43.7429 14.9879 43.7813C15.3956 43.8012 15.641 44.1705 15.5964 44.5709C15.5506 44.9823 15.3064 45.2116 14.8949 45.2302C14.5094 45.2463 14.124 45.2339 13.7385 45.2339Z" fill="black"/>
</svg>
