<svg width="49" height="49" viewBox="0 0 49 49" fill="none" xmlns="http://www.w3.org/2000/svg">
<path d="M0.665039 37.8765C0.992328 36.9867 1.64373 36.6986 2.55569 36.7018C11.24 36.7178 19.9242 36.7114 28.6085 36.7114H29.1614C29.3108 36.5673 29.2821 36.4361 29.2821 36.3177C29.2821 32.4733 29.3044 28.6322 29.2758 24.7879C29.2567 22.1663 27.579 20.2329 25.0433 19.82C24.7986 19.7816 24.5476 19.7752 24.3029 19.7752C20.7059 19.7752 17.1089 19.7752 13.5087 19.7752C13.4039 19.7752 13.2958 19.7848 13.1497 19.7912C13.1243 20.3449 13.137 20.8891 13.0671 21.4205C12.8224 23.3378 11.7674 24.615 9.97211 25.2648C9.70202 25.3608 9.58763 25.4697 9.6194 25.7513C9.7751 27.1117 8.81548 27.928 7.64932 27.7935C7.57623 27.7839 7.49997 27.8063 7.43324 27.8127C7.31567 27.9856 7.36334 28.1617 7.36334 28.3281C7.36016 29.7493 7.36334 31.1705 7.36334 32.5918C7.36334 32.7006 7.36334 32.8094 7.36334 32.9183C7.36334 33.264 7.21399 33.5168 6.85493 33.5136C6.49268 33.5104 6.35923 33.2512 6.35923 32.9055C6.35923 31.3914 6.35923 29.8742 6.35923 28.3601C6.35923 28.1905 6.35923 28.0208 6.35923 27.864C6.1368 27.7455 5.93026 27.7999 5.73325 27.7903C4.75456 27.7423 4.08091 27.0989 4.11269 26.1162C4.13175 25.5657 3.97288 25.3256 3.45176 25.1143C2.00279 24.5254 1.13532 23.3922 0.769899 21.8654C0.744479 21.7598 0.760367 21.6445 0.671396 21.5613V9.55774C0.808031 9.22804 0.88429 8.87593 1.0813 8.56864C1.65961 7.66918 2.49214 7.23385 3.54391 7.22745C4.8626 7.21784 6.18128 7.22745 7.49997 7.22745C7.66838 7.22745 7.83679 7.22745 7.99885 7.22745C8.1196 6.97137 8.05922 6.7345 8.07829 6.50723C8.19904 5.00919 9.28576 3.91446 10.7792 3.86965C11.9581 3.83124 13.137 3.83124 14.3158 3.86965C15.8379 3.91767 16.9532 5.0636 17.0327 6.59686C17.0422 6.78251 17.0327 6.97137 17.0327 7.19224H37.9092V4.3594C37.7789 4.25376 37.6328 4.30818 37.4993 4.28897C36.9432 4.20255 36.5651 3.82484 36.527 3.26147C36.5016 2.85815 36.5016 2.44843 36.527 2.04191C36.5651 1.42733 36.9687 1.02401 37.5819 1.0144C38.729 0.995199 39.8761 0.995199 41.0264 1.0144C41.6365 1.02401 42.0273 1.43053 42.0687 2.05471C42.0941 2.44203 42.0941 2.83574 42.0687 3.22626C42.021 3.92087 41.646 4.21855 40.6801 4.33379V7.22745C41.0359 7.22745 41.3855 7.22425 41.735 7.22745C43.5621 7.24665 44.741 8.53023 44.6234 10.3676C44.5916 10.8637 44.5535 11.3567 44.5186 11.8624C46.5776 12.1505 47.6993 13.4341 48.1505 15.3386C48.6367 17.3873 48.1759 19.2182 46.5935 20.6682C45.9357 21.27 45.1223 21.5133 44.2421 21.4813C44.1055 21.6445 44.1627 21.8238 44.1627 21.9902C44.1754 25.7865 44.15 29.5957 44.5503 33.3696C44.9729 37.3164 44.884 41.2599 44.903 45.2099C44.9126 47.2905 43.7115 48.4941 41.6429 48.4973C29.0788 48.4973 16.5147 48.4973 3.95064 48.4973C2.20615 48.4973 1.44354 47.9179 0.671396 46.0358V37.8765H0.665039ZM43.81 36.6826C43.8227 36.5929 43.8354 36.5609 43.8322 36.5321C43.4096 32.835 43.2412 29.1219 43.1935 25.4024C43.1268 20.3385 43.1935 15.281 43.6447 10.2331C43.6606 10.0635 43.6511 9.88743 43.6225 9.72098C43.4445 8.7607 42.7391 8.23574 41.6206 8.23574C28.9962 8.23574 16.3717 8.23574 3.74727 8.23574C3.63923 8.23574 3.5312 8.23574 3.42316 8.23574C2.42858 8.26775 1.68186 8.98797 1.6755 9.99307C1.66279 13.6806 1.65008 17.3681 1.68503 21.0555C1.7041 22.9537 3.22933 24.4422 5.11998 24.4806C6.29886 24.5062 7.47773 24.503 8.6566 24.4806C10.3598 24.4454 11.7229 23.2578 12.0566 21.5709C12.1487 21.1036 12.1138 20.6362 12.117 20.1689C12.1265 19.1254 12.4824 18.7573 13.5183 18.7573C17.0549 18.7573 20.5915 18.7573 24.125 18.7573C24.608 18.7573 25.0878 18.7861 25.5581 18.8885C28.3575 19.4935 30.2672 21.8654 30.2736 24.7654C30.2831 28.5458 30.2735 32.3261 30.2767 36.1064C30.2767 36.2889 30.2354 36.4777 30.3307 36.6794H43.8131L43.81 36.6826ZM43.8513 37.7165C43.7305 37.7101 43.6225 37.7005 43.5144 37.7005C29.8192 37.7005 16.1207 37.7005 2.42541 37.7005C1.79943 37.7005 1.66597 37.8381 1.66279 38.4719C1.66279 40.7062 1.70728 42.9404 1.6469 45.1747C1.60877 46.6471 2.57793 47.5242 3.97288 47.521C16.5211 47.5018 29.0692 47.5114 41.6174 47.5082C43.13 47.5082 43.918 46.7144 43.918 45.1971C43.918 42.87 43.918 40.5397 43.918 38.2126C43.918 38.059 43.9529 37.9021 43.8481 37.7133L43.8513 37.7165ZM44.1722 20.4474C44.9952 20.5498 45.6307 20.2457 46.1709 19.7079C47.6929 18.2003 47.7056 15.2138 46.1995 13.6934C45.726 13.2164 45.1731 12.9027 44.4455 12.9123C44.2516 15.4315 44.2103 17.925 44.1722 20.4474ZM15.9777 7.21144C16.1747 5.74541 15.4343 4.86835 14.033 4.86515C12.9622 4.86515 11.8945 4.85234 10.8237 4.86835C9.60987 4.88755 8.80595 6.00148 9.1237 7.20824H15.9777V7.21144ZM41.0423 2.0163H37.5438V3.24226H41.0423V2.0163ZM8.59305 25.5241H5.11362C4.96428 26.5452 5.174 26.798 6.14951 26.798C6.61343 26.798 7.07736 26.798 7.54128 26.798C8.52632 26.798 8.72969 26.558 8.59305 25.5241ZM39.6251 7.18263V4.32739C39.3868 4.28577 39.1771 4.26337 38.9674 4.33699V7.19864C39.2025 7.22745 39.3995 7.24345 39.6251 7.18263Z" fill="black" stroke="black" stroke-width="0.831202" stroke-miterlimit="10"/>
<path d="M37.115 33.1107C34.6492 33.1203 32.6378 31.1229 32.6124 28.6389C32.587 26.1614 34.627 24.0968 37.0991 24.0968C39.5586 24.0968 41.5636 26.1166 41.57 28.6005C41.5763 31.0877 39.5872 33.1043 37.115 33.1107ZM37.096 25.1083C35.1576 25.1083 33.607 26.6736 33.6133 28.6197C33.6197 30.5371 35.164 32.1024 37.0737 32.1216C38.9771 32.144 40.5786 30.5467 40.5881 28.6197C40.5945 26.6832 39.0279 25.1051 37.0991 25.1083H37.096Z" fill="black" stroke="black" stroke-width="0.593716" stroke-miterlimit="10"/>
<path d="M10.7573 13.2556C10.7573 13.739 10.7764 14.2224 10.7541 14.7058C10.7096 15.6438 10.0454 16.3065 9.16198 16.3193C8.25626 16.3321 7.53805 15.6758 7.50309 14.725C7.46495 13.7294 7.46495 12.7273 7.50309 11.7317C7.54122 10.7713 8.20224 10.1919 9.14291 10.1951C10.0868 10.2015 10.7033 10.7905 10.751 11.7605C10.7764 12.2567 10.7541 12.7594 10.7541 13.2588L10.7573 13.2556ZM8.48508 13.214C8.48508 13.6813 8.47554 14.1487 8.48508 14.6161C8.49779 15.0515 8.75202 15.3204 9.12702 15.3172C9.50202 15.3172 9.76261 15.0515 9.76897 14.6097C9.78168 13.707 9.78168 12.8042 9.76897 11.9014C9.76261 11.45 9.47342 11.1523 9.09842 11.1683C8.73931 11.1843 8.49143 11.4724 8.48508 11.9078C8.47554 12.3432 8.48508 12.7786 8.48508 13.214Z" fill="black" stroke="black" stroke-width="0.237486" stroke-miterlimit="10"/>
<path d="M3.22959 13.2143C3.22959 12.7469 3.21371 12.2763 3.23277 11.8089C3.27409 10.8709 3.93192 10.2018 4.81539 10.1794C5.71476 10.1538 6.44886 10.8165 6.487 11.7673C6.52831 12.7501 6.52513 13.7361 6.487 14.7157C6.45204 15.6761 5.74018 16.3324 4.83446 16.3228C3.9351 16.3132 3.26773 15.6345 3.23277 14.6677C3.21371 14.1843 3.23277 13.7009 3.23277 13.2175L3.22959 13.2143ZM5.50183 13.2463C5.50183 12.7949 5.51137 12.3435 5.50183 11.8921C5.4923 11.4632 5.23171 11.175 4.86942 11.1718C4.50713 11.1654 4.22429 11.4472 4.21794 11.8729C4.20523 12.7917 4.20205 13.7105 4.21794 14.6293C4.22429 15.0615 4.50077 15.3272 4.8726 15.3208C5.24442 15.3144 5.48912 15.0455 5.49865 14.6037C5.50819 14.1523 5.49865 13.7009 5.49865 13.2495L5.50183 13.2463Z" fill="black" stroke="black" stroke-width="0.237486" stroke-miterlimit="10"/>
</svg>
