<svg width="63" height="44" viewBox="0 0 63 44" fill="none" xmlns="http://www.w3.org/2000/svg">
<path d="M21.8515 39.993C19.0318 41.2706 16.8542 39.4371 16.5784 37.1889C15.434 37.388 14.372 37.1889 13.4747 36.4049C12.602 35.6375 12.1821 34.6502 12.178 33.497C8.83138 32.8292 7.81464 30.9377 9.12776 27.8473C8.69554 27.5113 8.25097 27.1753 7.76524 26.7978C7.58412 27.0882 7.43182 27.3495 7.26304 27.5984C6.91727 28.1128 6.51798 28.2455 5.99109 27.9552C4.34454 27.0426 2.71034 26.1134 1.07613 25.1801C0.606868 24.9104 0.565704 24.4873 0.680963 23.9854C1.84178 18.9206 2.98613 13.8516 4.13872 8.78256C4.64915 6.53428 5.16369 4.28185 5.68647 2.03772C5.91287 1.05876 6.51798 0.847206 7.31656 1.46942C10.6385 4.0537 13.948 6.64628 17.2741 9.22226C17.7804 9.61218 17.8833 10.0685 17.6857 10.6658C20.1267 10.587 22.5142 10.4211 24.8935 10.1348C25.9596 10.0062 27.0258 9.86521 28.0837 9.69514C29.0345 9.54166 29.936 9.70344 30.8046 10.0726C31.1174 10.2054 31.3809 10.2385 31.6731 10.0436C33.1962 9.03974 34.7769 8.97337 36.4605 9.64951C37.5307 10.0809 38.6669 10.3381 39.7495 10.7405C41.6595 11.4539 43.4748 11.2382 45.2942 10.2759C44.9896 9.55825 45.4218 9.16418 45.9487 8.75352C49.1595 6.2688 52.3538 3.75918 55.5563 1.26202C56.5319 0.498764 57.0918 0.702021 57.3717 1.93401C59.0223 9.18907 60.6689 16.4483 62.3278 23.7033C62.4677 24.309 62.2866 24.6947 61.7556 24.9893C60.2202 25.8438 58.6971 26.7232 57.1617 27.5818C56.4537 27.9759 56.1079 27.8763 55.6716 27.1836C55.3094 26.607 54.9554 26.0221 54.4861 25.2506C53.9057 25.8935 53.3911 26.4743 52.8642 27.0467C52.5843 27.3495 52.3003 27.6606 51.9875 27.9261C51.3083 28.5069 50.9048 29.1498 50.8307 30.1205C50.7196 31.5723 49.4353 32.7379 48.0069 32.9495C47.8258 32.9744 47.6447 33.0034 47.4059 33.0407C47.4677 34.2064 47.1631 35.2351 46.3151 36.0398C45.4836 36.8321 44.4751 37.1018 43.3595 36.9898C43.1661 39.433 41.219 41.1047 38.4405 40.2211C38.4158 40.2751 38.3787 40.3248 38.3623 40.3788C37.7654 43.017 35.419 44.0664 33.0851 42.7349C31.9366 42.0795 30.7881 41.4199 29.6561 40.7314C29.3103 40.5198 29.0798 40.5488 28.7999 40.8309C28.4212 41.2125 28.0055 41.561 27.5938 41.9053C25.5686 43.6101 22.7777 42.8013 21.9585 40.2792C21.9338 40.2004 21.905 40.1257 21.8638 40.0054L21.8515 39.993ZM30.4794 39.2214C31.7267 39.9432 32.941 40.6525 34.1594 41.3453C34.5711 41.5817 35.0198 41.6274 35.4767 41.4739C36.1476 41.2499 36.551 40.777 36.654 40.0801C36.7569 39.3708 36.4481 38.8274 35.876 38.4291C33.8589 37.0146 31.8378 35.6126 29.829 34.1856C29.2321 33.7625 29.121 33.3228 29.4091 32.8707C29.7055 32.4144 30.2077 32.3605 30.8128 32.7711C31.9613 33.5468 33.0974 34.3391 34.2335 35.1314C35.7607 36.1975 37.2714 37.2843 38.8068 38.342C39.8647 39.0721 41.1326 38.6739 41.4866 37.5332C41.7294 36.7533 41.4578 36.0896 40.6468 35.5089C38.0206 33.6298 35.3943 31.7548 32.7681 29.8716C32.2 29.4651 32.056 28.9424 32.3647 28.4986C32.6693 28.0589 33.2168 28.0298 33.7848 28.4322C35.065 29.3406 36.3452 30.2574 37.6254 31.1741C39.3049 32.3812 40.9803 33.6007 42.668 34.7954C43.8288 35.6167 45.2531 35.1314 45.5783 33.8206C45.7676 33.0656 45.463 32.377 44.6727 31.8046C42.7297 30.3942 40.7868 28.988 38.8439 27.5735C37.5884 26.6609 36.337 25.7401 35.0856 24.8233C34.7357 24.5661 34.5546 24.2467 34.6822 23.8029C34.7975 23.413 35.0815 23.2263 35.4602 23.1931C35.7689 23.1641 36.0036 23.359 36.2382 23.5291C39.5395 25.9226 42.845 28.3077 46.1381 30.7095C46.5703 31.0248 47.0066 31.2695 47.5582 31.2239C48.2951 31.1616 48.8919 30.6846 49.1101 29.9877C49.3489 29.2245 49.1225 28.5483 48.4021 27.9552C44.2075 24.5081 40.0006 21.0776 35.8266 17.6015C35.2503 17.1203 34.7975 16.9585 34.1677 17.4106C33.9371 17.5766 33.6449 17.6595 33.3773 17.7632C30.4588 18.8625 27.5815 18.9703 24.77 17.3982C24.0249 16.9834 23.5515 16.3861 23.568 15.5067C23.5845 14.6273 24.0743 14.0548 24.8358 13.6607C26.0831 13.0136 27.318 12.3375 28.5529 11.6696C28.6847 11.5991 28.8864 11.5867 28.8987 11.3336C28.7917 11.3419 28.6888 11.3419 28.5941 11.3585C24.7494 11.9559 20.8841 12.2919 16.9983 12.3873C16.6113 12.3956 16.4137 12.549 16.2244 12.8643C14.2897 16.0625 12.3385 19.2483 10.3915 22.4382C9.81931 23.3756 9.24714 24.309 8.65026 25.2879C9.12776 25.6571 9.60114 25.9931 10.0334 26.3664C10.3174 26.6112 10.5109 26.5697 10.7702 26.3291C11.3465 25.7898 11.931 25.263 12.5444 24.7694C14.4585 23.2139 17.1712 23.9854 18.0315 26.3084C18.085 26.4535 18.0521 26.6526 18.2496 26.7563C19.4557 26.1217 20.6907 26.0429 21.8844 26.7895C23.0576 27.5237 23.6133 28.6396 23.6421 30.0043C26.0255 30.274 26.8446 31.1036 27.4045 33.7501C30.3189 33.8994 31.8254 36.6206 30.467 39.2131L30.4794 39.2214ZM46.2986 11.8231C46.1834 11.8314 46.1422 11.8231 46.1052 11.8397C45.9693 11.8895 45.8335 11.9434 45.7059 12.0056C43.4583 13.08 41.1861 13.1381 38.8603 12.2545C37.6254 11.7858 36.3535 11.4249 35.0939 11.0225C34.4558 10.8193 33.826 10.8442 33.2291 11.1594C30.6934 12.5076 28.1619 13.864 25.6262 15.2121C25.1734 15.4527 25.2228 15.6767 25.6262 15.909C26.4248 16.3653 27.2686 16.6764 28.1783 16.805C30.4341 17.1203 32.4676 16.4483 34.4023 15.3739C34.9909 15.0462 35.4437 15.067 35.9706 15.5067C37.7777 17.029 39.6136 18.514 41.4372 20.0115C44.3598 22.4133 47.2783 24.8109 50.1433 27.167C51.2753 26.0263 52.3991 24.898 53.5599 23.7282C51.1601 19.7958 48.7314 15.8136 46.2945 11.8148L46.2986 11.8231ZM6.16809 26.0802C9.38709 20.8038 12.5896 15.5523 15.8086 10.28C12.886 8.00271 10.021 5.76687 7.11486 3.49785C7.04076 3.79652 6.98725 3.99563 6.94197 4.19889C6.25453 7.21457 5.56298 10.2344 4.87966 13.2501C4.10167 16.6723 3.32779 20.0986 2.54568 23.5208C2.48805 23.778 2.42631 23.9771 2.73092 24.143C3.87115 24.7653 4.99492 25.4165 6.17221 26.0802H6.16809ZM47.1836 9.97306C50.4109 15.2578 53.6134 20.501 56.8324 25.7732C57.9521 25.1386 59.0018 24.5205 60.0761 23.9481C60.4548 23.7448 60.5372 23.554 60.4342 23.1226C59.3558 18.4684 58.3102 13.8059 57.2523 9.14759C56.8077 7.18968 56.3549 5.23177 55.8857 3.18674C52.9589 5.46821 50.0939 7.70404 47.1836 9.97306ZM19.995 28.0174C19.5875 27.9966 19.1799 28.2123 18.8095 28.54C17.3893 29.8094 15.9609 31.0662 14.5449 32.3439C13.7546 33.0573 13.6846 34.0487 14.3473 34.841C15.0306 35.6582 16.0639 35.7909 16.8707 35.0899C18.3731 33.7916 19.8509 32.46 21.3246 31.1243C21.9091 30.5934 22.0491 29.8799 21.7733 29.1954C21.4934 28.4986 20.8183 28.0257 19.995 28.0174ZM18.3279 36.9524C18.3443 37.6617 18.6654 38.1927 19.287 38.508C19.9332 38.8315 20.5877 38.7817 21.1435 38.3047C22.473 37.1515 23.7944 35.9901 25.0911 34.7995C25.7991 34.1483 25.8032 33.0988 25.1652 32.3895C24.5354 31.6843 23.498 31.5848 22.7735 32.2153C21.4604 33.356 20.172 34.5258 18.8753 35.6831C18.4966 36.0191 18.3155 36.4464 18.332 36.9566L18.3279 36.9524ZM10.2598 29.6766C10.2598 30.6348 10.6179 31.1699 11.26 31.4893C11.9351 31.8253 12.5896 31.7175 13.1577 31.2197C14.0468 30.4399 14.9277 29.6559 15.8128 28.8719C16.636 28.1418 16.7472 27.1048 16.0927 26.3291C15.4093 25.5244 14.3761 25.4704 13.5117 26.2254C12.6061 27.0135 11.7087 27.8141 10.8155 28.6189C10.4409 28.9549 10.2556 29.3821 10.2639 29.6766H10.2598ZM23.5392 39.3086C23.5392 39.993 23.8438 40.5115 24.4324 40.8351C25.0458 41.1752 25.6962 41.1711 26.2395 40.7314C27.1369 40.0013 28.0096 39.2339 28.837 38.425C29.4668 37.8111 29.4133 36.7575 28.8164 36.1062C28.2072 35.4467 27.2069 35.3305 26.5236 35.9071C25.6674 36.6247 24.8482 37.3838 24.0208 38.1346C23.6791 38.4457 23.5351 38.8481 23.5392 39.3086Z" fill="black" stroke="black" stroke-width="0.296858" stroke-miterlimit="10"/>
</svg>
