<svg width="48" height="52" viewBox="0 0 48 52" fill="none" xmlns="http://www.w3.org/2000/svg">
<path d="M0.491563 51.7495C0.116118 51.4661 -0.00334238 51.0894 7.07539e-05 50.6159C0.0137233 47.8718 -0.00676635 45.1276 0.0102993 42.3835C0.0307782 39.2488 1.26634 36.7535 3.89445 35.0254C4.6351 34.5381 5.46449 34.2271 6.28023 33.8953C9.39301 32.6338 12.5058 31.3758 15.622 30.1178C16.6323 29.7099 16.8712 29.8205 17.2432 30.8677C18.1784 33.4909 19.1136 36.1141 20.0523 38.7373C20.1069 38.8893 20.1751 39.038 20.2809 39.2937C20.6359 38.2534 20.9533 37.3237 21.2707 36.3975C21.3254 36.2351 21.2503 36.1037 21.1956 35.9655C20.9465 35.3434 20.6837 34.7247 20.4482 34.0957C20.1956 33.4183 20.496 32.9345 21.2025 32.931C22.8988 32.9137 24.5951 32.9137 26.2915 32.931C26.998 32.9379 27.2881 33.4183 27.0492 34.0992C27.0219 34.1787 26.998 34.2651 26.9536 34.3307C25.7829 36.0139 26.527 37.5899 27.2198 39.1762C27.3803 39.0725 27.3837 38.8894 27.4383 38.7407C28.4042 36.0553 29.3599 33.37 30.3224 30.6846C30.6057 29.8966 30.9367 29.741 31.6876 30.0452C35.1724 31.4553 38.6607 32.8481 42.1352 34.2824C45.033 35.4782 46.7942 37.6555 47.3676 40.7764C47.4632 41.3017 47.4802 41.8478 47.4836 42.3869C47.4939 45.1311 47.4836 47.8752 47.4973 50.6194C47.4973 51.0929 47.3812 51.4696 47.0058 51.753H0.498375L0.491563 51.7495ZM22.2332 34.4724C22.421 34.9494 22.5814 35.371 22.7555 35.7858C22.8578 36.0277 22.9125 36.28 22.8271 36.5219C22.2162 38.3191 21.5984 40.1094 20.9704 41.8996C20.8612 42.2141 20.6086 42.3766 20.2741 42.3766C19.9396 42.3766 19.7075 42.2038 19.5778 41.8996C19.5232 41.7752 19.4857 41.6473 19.4413 41.5229C18.315 38.3778 17.192 35.2328 16.0623 32.0877C16.0145 31.9529 16.0009 31.7905 15.8473 31.6868C15.7142 31.7352 15.5742 31.7836 15.4377 31.8389C12.3078 33.1073 9.17799 34.3688 6.05156 35.6441C3.10261 36.8468 1.53255 39.1866 1.5189 42.3973C1.50866 44.8235 1.5189 47.2462 1.5189 49.6724C1.5189 49.8487 1.45747 50.0422 1.58717 50.1839H45.9409C45.9511 50.0595 45.9648 49.9765 45.9648 49.897C45.9648 47.3361 45.975 44.7786 45.958 42.2176C45.9511 41.4089 45.8487 40.607 45.5723 39.8398C44.8419 37.8214 43.4561 36.4632 41.497 35.6717C38.5822 34.4932 35.6708 33.3112 32.7559 32.1327C32.3737 31.9771 31.9914 31.8251 31.5852 31.6626C31.5101 31.8596 31.4487 32.0117 31.3941 32.1672C30.2644 35.3296 29.1346 38.4884 28.0083 41.6508C27.8649 42.0551 27.667 42.3973 27.1755 42.38C26.7113 42.3662 26.5406 42.0344 26.4075 41.6404C25.858 40.0195 25.3016 38.3986 24.7317 36.7846C24.5951 36.394 24.6054 36.0381 24.7726 35.6648C24.9399 35.2881 25.0832 34.8976 25.2539 34.4759H22.2298L22.2332 34.4724Z" fill="black"/>
<path d="M35.6467 9.69922C35.6467 10.8847 35.459 12.0459 35.162 13.1864C35.0699 13.539 35.0801 13.7809 35.4419 14.0159C36.2167 14.5239 36.5921 15.3258 36.6297 16.2382C36.7116 18.2254 36.2645 20.0468 34.8105 21.4915C34.3463 21.9511 33.7729 22.2414 33.138 22.3175C32.7797 22.3624 32.6227 22.5317 32.4793 22.822C31.8001 24.1941 31.0321 25.5074 30.1345 26.7447C28.5201 28.9635 26.2333 29.6997 23.6393 29.7343C22.5471 29.7481 21.5027 29.5062 20.4753 29.1364C19.0384 28.6179 17.9632 27.6606 17.1134 26.4095C16.3215 25.2448 15.6047 24.0317 14.9836 22.7668C14.8504 22.4972 14.6934 22.3831 14.3897 22.3313C12.8947 22.0721 12.0244 21.0525 11.4612 19.7219C10.9697 18.5641 10.7171 17.3476 10.8741 16.0792C10.9868 15.191 11.3725 14.441 12.1404 13.9468C12.3589 13.8051 12.4442 13.6495 12.4578 13.38C12.492 12.6023 12.3998 11.8938 12.0858 11.1439C11.3076 9.29831 11.7069 7.47695 12.5295 5.73853C13.1132 4.5047 13.8914 3.42294 15.144 2.79047C15.8744 2.42066 16.6458 2.26514 17.4615 2.37228C17.6253 2.39302 17.7823 2.43103 17.9052 2.25132C18.7653 0.989838 20.0725 0.499071 21.4651 0.243319C24.1785 -0.25436 26.8237 -0.0124322 29.3529 1.19029C31.8274 2.36537 33.8923 3.969 35.0801 6.55417C35.5409 7.55644 35.6569 8.614 35.6501 9.69922H35.6467ZM18.9155 7.4493C18.1168 9.87894 16.4205 11.3063 14.2736 12.274C14.0347 12.3812 13.9596 12.5263 13.9664 12.7752C13.9767 13.2141 13.9528 13.6495 13.9664 14.0885C13.9801 14.5481 13.806 14.8592 13.3623 15.0147C12.7172 15.2359 12.4169 15.7336 12.3691 16.3902C12.2735 17.6759 12.5807 18.8648 13.2975 19.9258C13.6934 20.5099 14.2429 20.8901 14.9733 20.8417C15.5194 20.8071 15.8334 21.0422 16.0621 21.526C16.6458 22.7529 17.2806 23.9556 18.0383 25.0858C18.4786 25.739 18.9121 26.4026 19.5503 26.883C21.0077 27.982 22.6802 28.3449 24.4516 28.179C26.3868 27.9993 28.0217 27.2355 29.1549 25.5282C30.0116 24.2391 30.7625 22.8981 31.4349 21.5087C31.6567 21.0525 31.9537 20.8071 32.4861 20.8417C33.2165 20.8935 33.7763 20.5341 34.1722 19.9466C34.9129 18.8544 35.2303 17.6379 35.1143 16.3142C35.0699 15.8062 34.8719 15.3016 34.3804 15.1391C33.6466 14.8937 33.4862 14.4272 33.5203 13.7152C33.5681 12.7371 33.2404 12.3501 32.3121 12.1012C30.4792 11.6104 28.6156 11.2787 26.7555 10.9227C24.6564 10.5252 22.588 10.0656 20.7552 8.88012C20.1272 8.4723 19.5401 8.01264 18.9155 7.44584V7.4493ZM33.9913 11.1059C34.5477 8.50341 33.7558 6.34334 31.8649 4.66022C28.817 1.95063 25.2605 0.937996 21.2603 1.86423C20.3388 2.07851 19.4411 2.4414 19.0077 3.43676C18.7346 4.06231 18.5059 4.16945 17.8301 3.98974C16.7174 3.69251 15.7583 3.96554 14.9597 4.79501C14.161 5.62102 13.6832 6.64057 13.3896 7.73615C13.1063 8.79372 13.079 9.8582 13.6251 10.8916C15.3692 10.1036 16.7755 8.99418 17.4342 7.11406C17.5775 6.70278 17.7038 6.28459 17.8165 5.86294C17.9052 5.53116 18.0486 5.25813 18.3933 5.16827C18.7619 5.0715 19.0384 5.25121 19.2602 5.53116C20.489 7.07258 22.0795 8.07485 23.9123 8.69004C25.4141 9.19463 26.9944 9.36052 28.5337 9.70268C30.3597 10.107 32.2336 10.3248 33.9913 11.1024V11.1059Z" fill="black"/>
<path d="M36.6743 41.5922C37.9713 41.5922 39.2683 41.5922 40.5653 41.5922C41.4356 41.5922 41.6745 41.8272 41.6745 42.6912C41.6779 44.2395 41.6814 45.7879 41.6745 47.3362C41.6745 48.138 41.4117 48.4041 40.6301 48.4041C38.0054 48.4041 35.3773 48.4041 32.7526 48.4041C31.9539 48.4041 31.7047 48.1553 31.7047 47.3535C31.7013 45.7706 31.6979 44.1877 31.7047 42.6083C31.7047 41.8548 31.9471 41.6025 32.6877 41.5991C34.0189 41.5887 35.3466 41.5991 36.6777 41.5991L36.6743 41.5922ZM33.2373 46.842H40.1079V43.1612H33.2373V46.842Z" fill="black"/>
</svg>
