<svg width="15" height="16" viewBox="0 0 15 16" fill="none" xmlns="http://www.w3.org/2000/svg">
<g clip-path="url(#clip0_12_152)">
<path d="M7.05974 0C7.35266 0 7.64558 0 7.9385 0C7.97607 0.00821821 8.01364 0.0214261 8.0515 0.0240676C9.09815 0.0956835 10.0931 0.36483 11.0071 0.877001C13.4729 2.25883 14.8119 4.37297 14.9859 7.19857C15.0696 8.55369 14.7719 9.84659 14.1183 11.0382C12.9557 13.1585 11.1797 14.45 8.80611 14.9119C8.51876 14.968 8.22555 14.9756 7.93821 15.0273H7.05945C7.02188 15.0191 6.98431 15.0059 6.94644 15.0032C5.8951 14.9319 4.89864 14.6545 3.97762 14.145C1.86495 12.9766 0.574981 11.2 0.114761 8.82196C0.0592885 8.53462 0.0501898 8.24169 0 7.95406C0 7.66055 0 7.36704 0 7.07353C0.00851172 7.03127 0.0220131 6.98959 0.0249481 6.94703C0.0980315 5.89892 0.373929 4.90539 0.879936 3.98701C2.04604 1.86964 3.81883 0.577036 6.19184 0.115055C6.47947 0.0592885 6.7721 0.0513638 7.05974 0ZM7.49883 1.17403C4.00902 1.17432 1.17785 4.00814 1.17198 7.50675C1.16611 11.0059 4.00521 13.8536 7.49971 13.8533C10.9895 13.853 13.8207 11.0195 13.8266 7.52055C13.8324 4.02135 10.9933 1.17374 7.49883 1.17403Z" fill="black"/>
<path d="M6.46974 8.69574C6.53548 8.60857 6.56601 8.55691 6.60681 8.51582C7.71362 7.40519 8.82191 6.29602 9.92843 5.18509C10.1107 5.00195 10.3159 4.90773 10.575 4.98815C10.9525 5.10555 11.1051 5.55726 10.8756 5.88012C10.8363 5.93559 10.7881 5.9852 10.74 6.03363C9.48113 7.296 8.22169 8.55779 6.96195 9.81958C6.6253 10.1568 6.3133 10.1559 5.97518 9.81752C5.38846 9.22992 4.80085 8.6432 4.21589 8.05384C3.97639 7.81257 3.94675 7.50439 4.13078 7.25931C4.35913 6.95553 4.75536 6.93998 5.04857 7.23026C5.48238 7.65995 5.91207 8.09375 6.34206 8.52727C6.37963 8.56513 6.40722 8.61297 6.46944 8.69574H6.46974Z" fill="black"/>
</g>
<defs>
<clipPath id="clip0_12_152">
<rect width="15" height="15.0276" fill="white"/>
</clipPath>
</defs>
</svg>
