<svg width="1098" height="920" viewBox="0 0 1098 920" fill="none" xmlns="http://www.w3.org/2000/svg">
<path d="M706.088 421.568C704.625 420.584 702.607 420.963 701.623 422.451L673.974 457.768L670.972 461.603C670.796 461.855 670.468 462.309 670.291 462.814C670.165 462.486 669.963 462.183 669.761 461.931C669.635 461.754 669.509 461.628 669.459 461.527L666.078 457.289L638.329 422.426C637.32 420.963 635.327 420.584 633.864 421.568C632.401 422.577 632.022 424.57 633.006 426.033L666.406 468.288C666.406 468.288 662.698 478.706 661.084 483.676C660.957 484.029 660.856 484.357 660.756 484.66C660.554 485.467 660.428 486.3 660.428 487.183C660.428 492.631 664.842 497.046 670.291 497.046C670.972 497.046 671.653 496.97 672.284 496.844C676.774 495.936 680.155 491.95 680.155 487.183C680.155 486.451 680.079 485.745 679.928 485.089C679.802 484.66 679.65 484.155 679.474 483.575C677.859 478.53 674.151 468.263 674.151 468.263L706.971 426.033C707.955 424.57 707.576 422.552 706.088 421.568ZM672.41 489.932C671.805 490.361 671.073 490.613 670.291 490.613C669.812 490.613 669.358 490.512 668.954 490.361C667.314 489.705 666.532 487.813 667.012 486.098C667.592 484.054 668.752 480.018 669.534 477.344C669.989 475.805 670.316 474.721 670.316 474.721C670.316 474.721 670.644 475.805 671.098 477.344C671.881 480.043 673.066 484.13 673.621 486.148C674 487.536 673.596 489.075 672.435 489.932H672.41Z" fill="#333333"/>
<path d="M452.459 420.761H402.611C399.962 420.761 397.793 422.905 397.793 425.579V452.218C397.793 454.741 398.726 457.213 400.391 459.105C400.467 459.181 400.517 459.257 400.593 459.332C400.341 459.685 400.063 460.039 399.786 460.417C398.474 462.183 397.768 464.352 397.768 466.547V492.354C397.768 495.003 399.912 497.172 402.586 497.172H452.156C454.124 497.172 455.688 495.406 455.335 493.338C455.057 491.774 453.569 490.689 451.98 490.689H404.251V468.212C404.276 467.657 404.175 466.143 404.554 465.235C404.806 464.63 405.31 463.999 406.092 463.57C406.597 463.293 408.136 462.763 408.136 462.763L421.607 468.338C424.659 469.726 428.166 469.473 430.966 467.657C433.791 465.841 435.456 462.763 435.456 459.408C435.456 456.053 433.816 453.051 431.067 451.235C428.317 449.418 424.861 449.09 421.809 450.402L408.211 455.7C408.211 455.7 406.622 455.119 406.143 454.817C405.159 454.161 404.806 453.581 404.604 453.101C404.226 452.244 404.226 451.26 404.226 450.251V426.664L452.257 427.193C453.846 427.193 455.335 426.109 455.612 424.545C455.965 422.501 454.401 420.735 452.434 420.735L452.459 420.761ZM424.382 456.406C425.416 455.952 426.576 456.053 427.51 456.683C428.468 457.314 428.998 458.323 428.998 459.458C428.998 460.594 428.443 461.628 427.485 462.259C426.501 462.889 425.366 462.965 424.306 462.486L416.233 459.357L424.382 456.406Z" fill="#333333"/>
<path d="M530.207 490.588H478.089V423.964C478.089 421.997 476.348 420.458 474.33 420.786C472.741 421.038 471.656 422.526 471.656 424.141V492.228C471.656 494.876 473.8 497.021 476.449 497.021H530.056C531.67 497.021 533.159 495.911 533.411 494.347C533.739 492.329 532.2 490.588 530.233 490.588H530.207Z" fill="#333333"/>
<path d="M612.598 420.761C610.807 420.761 609.369 422.199 609.369 423.99V485.265L553.794 421.871C552.911 420.862 551.499 420.508 550.237 420.988C548.976 421.467 548.144 422.653 548.144 424.015V493.842C548.144 495.633 549.581 497.071 551.373 497.071C553.164 497.071 554.602 495.633 554.602 493.842V432.567L610.176 495.961C610.807 496.668 611.689 497.071 612.598 497.071C612.976 497.071 613.354 496.996 613.733 496.869C614.994 496.39 615.827 495.204 615.827 493.842V424.015C615.827 422.224 614.389 420.786 612.598 420.786V420.761Z" fill="#333333"/>
<path d="M1084.49 253.685L953.763 454.11" stroke="#333333" stroke-miterlimit="10"/>
<path d="M13.667 253.685L144.391 454.11" stroke="#333333" stroke-miterlimit="10"/>
<path d="M144.391 454.11L0.927246 663.567" stroke="#333333" stroke-miterlimit="10"/>
<path d="M144.392 454.11H364.595" stroke="#333333" stroke-miterlimit="10"/>
<path d="M953.763 454.11L1097.23 663.567" stroke="#333333" stroke-miterlimit="10"/>
<path d="M953.762 454.11H733.559" stroke="#333333" stroke-miterlimit="10"/>
<path d="M492.62 540.941L341.437 765.357" stroke="#333333" stroke-miterlimit="10"/>
<path d="M341.437 765.357H95.4263" stroke="#333333" stroke-miterlimit="10"/>
<path d="M341.437 765.357L438.635 919.617" stroke="#333333" stroke-miterlimit="10"/>
<path d="M605.534 540.941L756.692 765.357" stroke="#333333" stroke-miterlimit="10"/>
<path d="M756.692 765.357H1002.73" stroke="#333333" stroke-miterlimit="10"/>
<path d="M756.693 765.357L659.52 919.617" stroke="#333333" stroke-miterlimit="10"/>
<path d="M492.62 379.768L341.437 155.326" stroke="#333333" stroke-miterlimit="10"/>
<path d="M341.437 155.326H95.4263" stroke="#333333" stroke-miterlimit="10"/>
<path d="M341.437 155.326L438.635 1.09033" stroke="#333333" stroke-miterlimit="10"/>
<path d="M605.534 379.768L756.692 155.326" stroke="#333333" stroke-miterlimit="10"/>
<path d="M756.692 155.326H1002.73" stroke="#333333" stroke-miterlimit="10"/>
<path d="M756.693 155.326L659.52 1.09033" stroke="#333333" stroke-miterlimit="10"/>
</svg>
