<svg width="39" height="36" viewBox="0 0 39 36" fill="none" xmlns="http://www.w3.org/2000/svg">
<g clip-path="url(#clip0_32_35)">
<path d="M0.499023 28.532V20.7434C0.81507 20.0541 1.39242 19.8336 2.18357 19.8488C3.88981 19.8811 5.59606 19.8592 7.30333 19.8564C7.4345 19.8564 7.57496 19.8963 7.71543 19.7974C7.71543 18.8305 7.70407 17.8522 7.72266 16.8739C7.72782 16.6067 7.63074 16.4755 7.38079 16.3491C5.78713 15.5485 4.20586 14.7261 2.6153 13.9208C2.07513 13.647 1.79936 13.2525 1.81589 12.6792C1.83035 12.1677 1.81795 11.6552 1.82621 11.1427C1.83344 10.752 2.01522 10.4316 2.37465 10.2272C2.57295 10.114 2.65868 9.96381 2.72271 9.77556C3.39199 7.8018 4.07366 5.8309 4.73364 3.85429C5.04865 2.91114 5.68591 2.29125 6.71461 1.99367C7.73918 1.69703 8.77098 1.41371 9.76767 1.04957C10.9637 0.611273 12.1824 0.450596 13.46 0.513346C14.3276 0.55613 14.7738 0.881287 14.906 1.67992C15.377 4.54548 18.6201 6.17412 21.4655 4.9467C22.9879 4.29068 23.8493 3.14978 24.0993 1.62002C24.2149 0.913612 24.6859 0.529509 25.4554 0.520952C25.9129 0.516198 26.3715 0.533312 26.828 0.516198C27.268 0.500035 27.6791 0.576095 28.0943 0.707299C29.4607 1.13894 30.8292 1.56298 32.207 1.96324C33.2853 2.27604 33.9566 2.90734 34.284 3.91038C34.9285 5.87938 35.6174 7.83603 36.2836 9.79933C36.3445 9.97902 36.4313 10.1159 36.6162 10.2215C36.989 10.4335 37.1687 10.7643 37.1749 11.1675C37.1811 11.6457 37.1615 12.1239 37.1853 12.6012C37.2162 13.2306 36.926 13.6546 36.329 13.9522C35.0359 14.5959 33.7563 15.2604 32.4724 15.9193C32.0841 16.118 31.5708 16.2464 31.3518 16.5506C31.1215 16.871 31.2929 17.3673 31.2867 17.7866C31.2775 18.4654 31.2847 19.1452 31.2847 19.8573H31.7247C33.4805 19.8573 35.2363 19.8573 36.9932 19.8573C38.0084 19.8573 38.5001 20.3061 38.5011 21.2331C38.5021 23.4987 38.5011 25.7634 38.5011 28.029C38.5011 29.0273 38.0342 29.4552 36.9374 29.4561C35.2063 29.458 33.4753 29.4561 31.7433 29.459C31.6007 29.459 31.4479 29.4219 31.2847 29.5227C31.2847 30.2481 31.2868 30.9859 31.2847 31.7236C31.2837 32.0583 31.2661 32.4234 30.9707 32.6383C30.6237 32.8902 30.601 33.1916 30.6268 33.5367C30.6371 33.6727 30.6164 33.8106 30.6299 33.9465C30.7022 34.671 30.4171 35.2053 29.6693 35.5H9.33078C8.58508 35.2063 8.30311 34.6729 8.36921 33.9484C8.39193 33.7003 8.36508 33.4483 8.37541 33.1983C8.38264 33.029 8.34649 32.9035 8.18227 32.7923C7.92509 32.6174 7.79186 32.3635 7.74745 32.0669C7.68135 31.6248 7.72576 31.1808 7.71646 30.7387C7.70717 30.3222 7.7144 29.9049 7.7144 29.458C7.51713 29.458 7.3715 29.458 7.22587 29.458C5.52066 29.458 3.81545 29.4418 2.11128 29.4656C1.32736 29.4761 0.769626 29.2346 0.499023 28.532ZM8.95586 19.8336H30.0412C30.0412 19.6729 30.0412 19.5369 30.0412 19.4019C30.0412 16.2492 30.0443 13.0956 30.0391 9.94289C30.0381 9.21747 30.1703 8.51962 30.4636 7.84554C30.7889 7.09635 31.0998 6.3424 31.4159 5.58941C31.7391 4.8193 32.0624 4.04919 32.4053 3.23154C30.9129 2.77233 29.4566 2.32453 27.9517 1.86151C27.6956 3.85619 26.797 5.52761 25.2127 6.85961C23.6128 8.20397 21.7021 8.97123 19.5476 8.88851C14.6788 8.70217 11.95 6.19218 10.9751 1.88148C9.53115 2.32643 8.07382 2.77518 6.601 3.22964C6.66091 3.38937 6.69706 3.49585 6.74043 3.59948C7.31572 4.96571 7.88172 6.33575 8.4725 7.69722C8.803 8.45877 8.96103 9.23839 8.95793 10.0579C8.9476 13.1764 8.9538 16.2958 8.9538 19.4143C8.9538 19.5483 8.9538 19.6833 8.9538 19.8336H8.95586ZM37.2359 28.3152V21.0296H33.2357C33.2357 21.4536 33.2512 21.8511 33.2316 22.2466C33.212 22.6364 32.8453 22.8836 32.4652 22.7761C32.1512 22.6877 32.0221 22.469 32.0211 22.1762C32.0211 21.7931 32.0211 21.4099 32.0211 21.0277H29.9637C29.9637 21.8263 29.9699 22.5993 29.9616 23.3723C29.9575 23.7602 29.7003 24.014 29.3461 24.0131C29.0093 24.0121 28.7491 23.7735 28.7357 23.4027C28.716 22.8798 28.7284 22.3559 28.7284 21.832C28.7284 21.5639 28.7284 21.2958 28.7284 21.022H26.6875C26.6875 21.1751 26.6927 21.3091 26.6875 21.4422C26.6741 21.7484 26.7299 22.0574 26.6524 22.3607C26.5812 22.6402 26.3777 22.7923 26.0699 22.7942C25.7611 22.7961 25.5545 22.6421 25.4853 22.3645C25.4502 22.2228 25.4512 22.0716 25.4492 21.9243C25.444 21.6219 25.4481 21.3196 25.4481 21.0239H23.4021C23.4021 21.408 23.4114 21.7702 23.4 22.1315C23.3866 22.5594 23.1532 22.799 22.7793 22.7961C22.4044 22.7932 22.1782 22.5461 22.173 22.1211C22.1679 21.7598 22.172 21.3985 22.172 21.021H20.1105C20.1105 21.1741 20.1105 21.3082 20.1105 21.4413C20.1084 22.1125 20.1167 22.7847 20.1012 23.4559C20.0939 23.782 19.8419 24.0007 19.5186 24.0112C19.1871 24.0216 18.9258 23.7906 18.9 23.4531C18.8876 23.2943 18.8938 23.1346 18.8938 22.9748C18.8938 22.3293 18.8938 21.6837 18.8938 21.0191H16.8281C16.8281 21.4451 16.8436 21.853 16.823 22.2589C16.8064 22.5822 16.5472 22.7932 16.2218 22.7951C15.9068 22.7961 15.6724 22.6107 15.6249 22.297C15.599 22.1287 15.6114 21.9566 15.6001 21.7864C15.5825 21.5316 15.6486 21.2701 15.5557 21.0229H13.5582C13.5582 21.3852 13.5613 21.7246 13.5582 22.064C13.553 22.5356 13.3247 22.7999 12.9312 22.7961C12.5429 22.7923 12.3219 22.528 12.3167 22.0517C12.3136 21.7132 12.3167 21.3747 12.3167 21.0268H10.2758C10.2758 21.3253 10.2758 21.5972 10.2758 21.8691C10.2738 22.393 10.2882 22.9168 10.2634 23.4398C10.2469 23.7868 9.9763 24.014 9.65302 24.0121C9.31219 24.0102 9.06018 23.7649 9.04159 23.4017C9.03126 23.1973 9.03952 22.992 9.03952 22.7875C9.03952 22.2 9.03952 21.6115 9.03952 21.0296H6.98315C6.98315 21.409 6.98831 21.7607 6.98212 22.1116C6.97489 22.5461 6.76006 22.7875 6.38824 22.7961C6.00093 22.8047 5.76957 22.5518 5.76441 22.1059C5.76028 21.7455 5.76441 21.3852 5.76441 21.0306H1.77251V28.3152H37.2369H37.2359ZM30.0205 29.4837H8.97755V31.9262H30.0205V29.4837ZM12.2578 1.65995C12.5832 4.05014 13.806 5.85181 16.07 6.95754C18.6098 8.19732 21.1516 8.06896 23.5519 6.61146C25.4523 5.45725 26.4727 3.78203 26.733 1.659C26.323 1.659 25.978 1.66946 25.6351 1.6552C25.4037 1.64569 25.318 1.71795 25.2829 1.93567C24.7572 5.16347 21.1412 7.25417 17.7721 6.24162C15.4968 5.55803 14.1386 4.09007 13.709 1.9119C13.6842 1.78545 13.6821 1.6571 13.4859 1.65805C13.0944 1.6609 12.7019 1.65805 12.2578 1.65805V1.65995ZM29.3512 34.3487V33.1098H9.64373V34.3487H29.3512ZM31.2661 12.1696C31.3766 12.142 31.4148 12.1391 31.4458 12.1239C32.6119 11.5297 33.7738 10.9288 34.9461 10.3441C35.1723 10.231 35.1072 10.1045 35.0545 9.95145C34.4689 8.24105 33.8854 6.5297 33.2997 4.81835C33.2739 4.74229 33.2357 4.67003 33.1737 4.53122C32.5995 5.91456 32.0294 7.21994 31.516 8.54434C31.0637 9.71186 31.3725 10.9345 31.2651 12.1686L31.2661 12.1696ZM5.82844 4.54453C5.78506 4.61774 5.76957 4.6358 5.76234 4.65767C5.14987 6.44318 4.5405 8.23059 3.9208 10.0142C3.8485 10.2234 3.95901 10.289 4.12427 10.3726C5.22733 10.9307 6.32524 11.4974 7.42624 12.0583C7.50576 12.0982 7.5791 12.1819 7.71027 12.1239C7.71027 11.3139 7.71336 10.4962 7.7082 9.67859C7.70613 9.41713 7.69167 9.15282 7.60698 8.90182C7.10916 7.43862 6.41819 6.04291 5.82948 4.54548L5.82844 4.54453ZM3.03773 11.2036C3.03773 11.6371 3.05219 12.0764 3.03153 12.5147C3.0212 12.7505 3.10589 12.8807 3.33312 12.9958C4.6882 13.6765 6.03398 14.3734 7.38492 15.0617C7.47684 15.1083 7.5605 15.1901 7.7144 15.1644C7.7144 14.7138 7.70097 14.2603 7.71956 13.8077C7.72886 13.5843 7.64933 13.4626 7.43347 13.3551C6.08872 12.6811 4.75223 11.9908 3.41161 11.3091C3.30936 11.2568 3.21744 11.1627 3.03566 11.2045L3.03773 11.2036ZM31.2847 15.23C32.836 14.4361 34.3233 13.6755 35.8095 12.914C35.887 12.8741 35.9583 12.8275 35.9583 12.7353C35.9583 12.219 35.9583 11.7037 35.9583 11.1732C35.8643 11.1893 35.824 11.1874 35.7951 11.2017C34.347 11.9395 32.9011 12.6801 31.451 13.416C31.3239 13.4806 31.2806 13.5605 31.2816 13.6879C31.2868 14.1766 31.2837 14.6653 31.2837 15.2291L31.2847 15.23Z" fill="black"/>
</g>
<defs>
<clipPath id="clip0_32_35">
<rect width="38" height="35" fill="white" transform="translate(0.499023 0.5)"/>
</clipPath>
</defs>
</svg>
