<svg width="36" height="36" viewBox="0 0 36 36" fill="none" xmlns="http://www.w3.org/2000/svg">
<path d="M1.60521 16.317C0.512066 16.2615 0.502413 16.2518 0.502413 15.1901C0.502413 12.4391 0.502413 9.68571 0.502413 6.93474C0.502413 6.30974 0.671332 6.14324 1.29633 6.14324C2.14334 6.14324 2.98793 6.14324 3.8277 6.14324C3.93147 6.01775 3.88562 5.88262 3.88562 5.75955C3.88803 4.25376 3.88562 2.75038 3.88803 1.24459C3.89044 0.687156 4.07626 0.498932 4.62645 0.498932C13.5381 0.498932 22.4522 0.498932 31.3663 0.498932C31.9237 0.498932 32.112 0.684743 32.112 1.23494C32.112 2.72866 32.112 4.22239 32.112 5.71611C32.112 5.84401 32.112 5.97191 32.112 6.14565C32.6815 6.14565 33.2292 6.14565 33.777 6.14565C34.1173 6.14565 34.4599 6.14565 34.8002 6.14565C35.3021 6.15048 35.4976 6.34594 35.4976 6.85752C35.4976 9.45646 35.4976 12.0554 35.4976 14.6543C35.4976 14.9729 35.5 15.289 35.4976 15.6075C35.4928 16.1095 35.2949 16.3001 34.7857 16.3073C34.6578 16.3073 34.5323 16.3073 34.3876 16.3073V30.9429C34.5468 31.0298 34.7254 30.9719 34.8943 30.984C35.2708 31.0081 35.4903 31.2084 35.4928 31.5824C35.5024 32.6876 35.5 33.7929 35.4928 34.8981C35.4903 35.2745 35.2732 35.4796 34.8991 35.4989C34.805 35.5038 34.7109 35.4989 34.6168 35.4989C23.5405 35.4989 12.4619 35.4989 1.38562 35.4989C0.637548 35.4989 0.5 35.3614 0.5 34.6206C0.5 33.6794 0.5 32.7383 0.5 31.7972C0.5 31.1457 0.656853 30.9864 1.30598 30.9816C1.39768 30.9816 1.4918 30.9816 1.60039 30.9816V16.317H1.60521ZM33.2268 16.329H2.77799V30.9574H12.9204V30.5207C12.9204 26.428 12.9204 22.3353 12.9204 18.2451C12.9204 17.5959 13.082 17.4343 13.7312 17.4343C16.5763 17.4343 19.4237 17.4343 22.2688 17.4343C22.918 17.4343 23.0821 17.5984 23.0821 18.2451C23.0821 22.3498 23.0821 26.4521 23.0821 30.5568C23.0821 30.692 23.0386 30.8368 23.1255 30.9647H33.2244V16.3315L33.2268 16.329ZM21.9286 30.9647V18.5901H14.0714V30.9647H21.9286ZM34.3562 32.1326H1.6583V34.3503H34.3538V32.1326H34.3562ZM5.03427 8.37779H30.9561V1.64517H5.03427V8.37779ZM6.13224 9.53127C5.60859 9.53127 5.11631 9.53127 4.62645 9.53127C4.07626 9.53127 3.89044 9.34304 3.88803 8.78802C3.88803 8.28851 3.88803 7.78899 3.88803 7.28947H1.64865V15.1539H6.13224V9.52885V9.53127ZM34.3562 7.29913H32.112V8.30781C32.112 9.52162 32.0999 9.53127 30.903 9.53127H29.8726V15.1563H34.3562V7.29913ZM7.2833 15.1539H10.6375V9.56023H7.2833V15.1539ZM15.1573 15.1683V9.5554H11.8224V15.1683H15.1573ZM19.6723 15.1587V9.55781H16.3253V15.1587H19.6723ZM20.8499 9.54816V15.149H24.1921V9.54816H20.8499ZM28.7119 9.55781H25.3673V15.1587H28.7119V9.55781Z" fill="black"/>
<path d="M11.7912 23.6433C11.7912 25.4531 11.7912 27.2654 11.7912 29.0752C11.7912 29.6737 11.615 29.8523 11.0142 29.8523C8.89786 29.8523 6.78155 29.8523 4.66524 29.8523C4.06678 29.8523 3.89062 29.6761 3.89062 29.0752C3.89062 25.4531 3.89062 21.831 3.89062 18.2089C3.89062 17.608 4.06437 17.4343 4.66765 17.4343C6.78397 17.4343 8.90028 17.4343 11.0166 17.4343C11.6175 17.4343 11.7936 17.6105 11.7936 18.2113C11.7936 20.0212 11.7936 21.8334 11.7936 23.6433H11.7912ZM5.03203 28.6988H10.6329V18.5829H5.03203V28.6988Z" fill="black"/>
<path d="M32.1125 23.6408C32.1125 25.4506 32.1125 27.2629 32.1125 29.0728C32.1125 29.6736 31.9363 29.8498 31.3379 29.8498C29.2216 29.8498 27.1053 29.8498 24.9889 29.8498C24.3881 29.8498 24.2119 29.6736 24.2119 29.0752C24.2119 25.4531 24.2119 21.831 24.2119 18.2089C24.2119 17.6056 24.3857 17.4318 24.9865 17.4318C27.1028 17.4318 29.2192 17.4318 31.3355 17.4318C31.9363 17.4318 32.1125 17.608 32.1125 18.2064C32.1125 20.0163 32.1125 21.8285 32.1125 23.6384V23.6408ZM30.959 28.7084V18.5925H25.3581V28.7084H30.959Z" fill="black"/>
<path d="M20.8239 24.7678C20.8239 25.3807 20.3219 25.8923 19.709 25.8995C19.0961 25.9068 18.5797 25.4048 18.5676 24.7919C18.5555 24.1597 19.0695 23.6408 19.6993 23.6433C20.3123 23.6433 20.8215 24.1524 20.8239 24.7678Z" fill="black"/>
<path d="M24.0126 5.67704V7.03224H23.4582V5.66584L21.9014 3.11224H22.5006L23.755 5.17864L25.015 3.11224H25.5694L24.0126 5.67704Z" fill="black"/>
<path d="M21.3385 3.11224V7.03224H20.8793L18.5273 4.10904V7.03224H17.9673V3.11224H18.4265L20.7785 6.03544V3.11224H21.3385Z" fill="black"/>
<path d="M14.6421 3.11224H15.2021V6.54504H17.3245V7.03224H14.6421V3.11224Z" fill="black"/>
<path d="M13.7354 6.54504V7.03224H10.8906V3.11224H13.657V3.59944H11.4506V4.80344H13.4162V5.27944H11.4506V6.54504H13.7354Z" fill="black"/>
</svg>
