<svg width="41" height="38" viewBox="0 0 41 38" fill="none" xmlns="http://www.w3.org/2000/svg">
<g clip-path="url(#clip0_32_10)">
<path d="M0.5 6.34964C0.660659 5.77169 0.871394 5.21877 1.26574 4.75139C2.0054 3.87611 2.93284 3.40561 4.09188 3.41604C4.6761 3.42126 5.26031 3.41604 5.84766 3.41604C5.96137 3.17193 5.89774 2.93511 5.9113 2.70664C5.98537 1.4704 6.86169 0.4741 8.00196 0.336392C9.24133 0.187209 10.3419 0.886181 10.6987 2.04105C10.8323 2.47087 10.7895 2.91529 10.8177 3.3837H14.0569C14.156 3.20844 14.1007 3.00918 14.106 2.82035C14.1425 1.36086 15.192 0.300922 16.5931 0.318657C17.968 0.335349 18.9915 1.41198 19.0029 2.85478C19.004 3.0217 19.0029 3.18862 19.0029 3.41604H22.2766C22.2985 3.0676 22.2985 2.74524 22.3434 2.42914C22.526 1.11465 23.612 0.244587 24.9515 0.32596C26.1773 0.40003 27.1559 1.43388 27.1997 2.70351C27.207 2.92259 27.2007 3.14167 27.2007 3.38892H30.5047C30.44 2.38845 30.6184 1.46518 31.4707 0.814197C31.9558 0.443846 32.5056 0.28423 33.1149 0.323873C33.8785 0.373949 34.4763 0.722392 34.9333 1.32434C35.3933 1.93047 35.4236 2.64613 35.4048 3.41709C35.8847 3.41709 36.3375 3.44734 36.785 3.41187C38.8402 3.24808 40.5334 5.37421 40.499 7.11747C40.4186 11.28 40.4739 22.7004 40.475 26.865C40.475 26.9818 40.4791 27.0997 40.4729 27.2166C40.4499 27.7142 40.1192 28.0574 39.6758 28.0491C39.2272 28.0407 38.9164 27.7006 38.9153 27.1895C38.9111 24.9121 38.9122 15.3799 38.9122 13.1025C38.9122 12.9492 38.9122 12.7969 38.9122 12.6206H2.10972C2.01896 12.7437 2.06382 12.8918 2.06382 13.0285C2.06173 19.9514 2.06173 26.8754 2.06069 33.7984C2.06069 34.1521 2.08364 34.4984 2.1984 34.8364C2.47903 35.6658 3.07577 36.1154 3.94896 36.1196C5.53677 36.1269 7.12459 36.1217 8.7124 36.1217C18.0557 36.1217 27.4 36.1217 36.7433 36.1217C38.1444 36.1217 38.9101 35.3685 38.9153 33.9601C38.9226 31.7088 38.9164 29.4575 38.9164 27.2061C38.9164 27.0893 38.9122 26.9714 38.9205 26.8546C38.9508 26.4258 39.2627 26.118 39.6727 26.1076C40.0775 26.0972 40.4249 26.3914 40.4656 26.8149C40.4927 27.0987 40.477 27.3866 40.477 27.6735C40.477 29.808 40.499 31.9425 40.4687 34.0759C40.4489 35.4718 39.8647 36.587 38.6253 37.3026C38.2143 37.5395 37.7646 37.6667 37.2868 37.6761C37.0917 37.6803 36.8966 37.6845 36.7016 37.6845C25.8998 37.6845 15.0991 37.6845 4.2974 37.6845C2.16919 37.6845 1.00389 36.7372 0.555292 34.6413C0.547989 34.6059 0.519822 34.5746 0.501043 34.5412C0.501043 25.1447 0.501043 15.7472 0.501043 6.35068L0.5 6.34964ZM2.06486 11.014H38.9101V10.5748C38.9101 9.41677 38.8955 8.25773 38.9164 7.09973C38.9278 6.46648 38.6743 5.97199 38.2508 5.53383C37.4266 4.68045 36.3907 5.06228 35.4006 4.97673C35.4006 5.27614 35.4027 5.50983 35.4006 5.74247C35.3871 7.17067 34.3459 8.25773 32.974 8.27651C31.6053 8.29529 30.5276 7.18841 30.5016 5.7456C30.4974 5.50253 30.5422 5.25528 30.4609 5.00177H27.1997C27.1997 5.32413 27.2101 5.6225 27.1976 5.91983C27.1423 7.20719 26.1325 8.20974 24.8347 8.27442C23.6318 8.33493 22.527 7.42001 22.3497 6.19107C22.2944 5.8082 22.3027 5.41594 22.2819 5.03098C21.8875 4.94544 19.3159 4.95796 19.0029 5.0508C19.0029 5.27719 19.005 5.51087 19.0029 5.74456C18.9904 7.16963 17.9482 8.25877 16.5764 8.27755C15.2275 8.29633 14.1414 7.1978 14.106 5.78316C14.0997 5.52757 14.1404 5.2678 14.0695 5.00177H10.801C10.801 5.33665 10.8145 5.64858 10.7989 5.95947C10.7363 7.21866 9.716 8.21392 8.43699 8.27442C7.22891 8.3318 6.11995 7.41062 5.95407 6.19003C5.90191 5.80611 5.90712 5.4149 5.88417 4.9903C5.10904 4.98299 4.34122 4.90475 3.58487 5.03203C2.84938 5.15513 2.08468 5.99181 2.07217 6.68661C2.04817 8.11689 2.06486 9.54718 2.06486 11.014ZM9.24341 4.31323C9.24341 3.81874 9.24967 3.32424 9.24133 2.82974C9.23194 2.257 8.88662 1.88769 8.37231 1.88248C7.85173 1.87726 7.48764 2.23092 7.47825 2.80575C7.46156 3.79474 7.4626 4.78373 7.47825 5.77273C7.48659 6.33086 7.87364 6.71895 8.36709 6.71269C8.86367 6.70747 9.23298 6.31104 9.24237 5.75812C9.25072 5.27719 9.24446 4.79521 9.24446 4.31323H9.24341ZM17.4423 4.30906C17.4423 3.81456 17.4496 3.32007 17.4402 2.82557C17.4297 2.25492 17.0802 1.88561 16.5659 1.88248C16.0474 1.87935 15.6844 2.23614 15.675 2.80992C15.6594 3.79891 15.6604 4.78791 15.675 5.7769C15.6833 6.33191 16.0756 6.72104 16.5691 6.71269C17.0667 6.70434 17.4308 6.31104 17.4402 5.75395C17.4485 5.27302 17.4423 4.79104 17.4423 4.30906ZM25.6411 4.3101C25.6411 3.81561 25.6484 3.32111 25.639 2.82661C25.6286 2.25596 25.2791 1.88561 24.7658 1.88248C24.2484 1.8783 23.8822 2.23718 23.8738 2.80888C23.8592 3.79787 23.8592 4.78686 23.8738 5.77586C23.8822 6.33086 24.2734 6.72104 24.7669 6.71269C25.2634 6.70539 25.6296 6.31104 25.6401 5.75499C25.6494 5.27406 25.6421 4.79208 25.6421 4.3101H25.6411ZM33.8399 4.31845C33.8399 3.82395 33.8472 3.32945 33.8378 2.83496C33.8274 2.257 33.4873 1.88978 32.973 1.88248C32.4535 1.87413 32.081 2.23092 32.0727 2.79949C32.057 3.78848 32.0591 4.77748 32.0727 5.76647C32.08 6.32356 32.4639 6.71478 32.9574 6.71373C33.4529 6.71269 33.8274 6.3173 33.8389 5.76438C33.8493 5.28345 33.841 4.80147 33.841 4.31949L33.8399 4.31845Z" fill="black"/>
<path d="M26.656 19.6729C26.6185 20.2519 26.7395 21.0364 26.5892 21.8105C26.2971 23.3117 24.894 24.4259 23.3854 24.3581C21.7841 24.2871 20.4602 23.1187 20.3308 21.558C20.215 20.1715 20.2109 18.7726 20.3329 17.3861C20.4779 15.7419 21.9395 14.5579 23.641 14.6184C25.2466 14.6747 26.5955 16.0194 26.6529 17.6375C26.6748 18.2489 26.656 18.8602 26.656 19.6718V19.6729ZM25.0984 19.5101C25.0984 18.951 25.1037 18.3918 25.0974 17.8336C25.087 16.9208 24.4318 16.2156 23.5691 16.1801C22.6541 16.1415 21.903 16.7549 21.8654 17.6834C21.8164 18.8904 21.8175 20.1016 21.8696 21.3087C21.9072 22.1902 22.674 22.8297 23.5159 22.8005C24.4099 22.7692 25.0838 22.0702 25.0974 21.1501C25.1058 20.6045 25.0984 20.0578 25.0995 19.5122L25.0984 19.5101Z" fill="black"/>
<path d="M25.6204 31.7641C25.6204 32.0165 25.6267 32.269 25.6193 32.5215C25.6027 33.066 25.3001 33.404 24.838 33.4061C24.3748 33.4082 24.0639 33.0692 24.0628 32.5256C24.0576 30.9274 24.0555 29.3281 24.0628 27.7298C24.066 27.1488 24.3476 26.8786 24.9329 26.8692C25.3491 26.8629 25.7644 26.8608 26.1806 26.8713C27.2186 26.8973 28.023 27.5264 28.2588 28.4872C28.4768 29.3761 28.0585 30.2534 27.1686 30.773C27.1352 30.7928 27.1028 30.8126 27.0267 30.8596C27.396 31.2852 27.7663 31.6952 28.1169 32.1208C28.3787 32.439 28.3714 32.8313 28.1304 33.1224C27.8988 33.402 27.5034 33.4833 27.1769 33.3195C27.0089 33.235 26.8963 33.09 26.7763 32.9544C26.4185 32.5496 26.0627 32.1438 25.707 31.738C25.6778 31.7463 25.6496 31.7547 25.6204 31.763V31.7641ZM25.6465 29.4449C26.0659 29.4585 26.4602 29.5378 26.6949 29.1309C26.7867 28.9713 26.7607 28.8002 26.6428 28.6594C26.3611 28.3245 25.9991 28.4424 25.6465 28.4445V29.4439V29.4449Z" fill="black"/>
<path d="M31.478 26.8681C32.3418 26.8754 32.9552 27.0976 33.4967 27.5139C33.8837 27.8123 33.9578 28.2525 33.7043 28.6124C33.455 28.9671 33.0032 29.0454 32.5995 28.7783C32.2531 28.5488 31.8953 28.3902 31.4686 28.4434C31.2777 28.4674 31.091 28.5321 31.0586 28.7397C31.0252 28.9504 31.2391 28.9629 31.3737 29.0193C31.7566 29.1799 32.1457 29.325 32.5296 29.4835C33.5874 29.9227 34.1445 30.7636 33.9807 31.667C33.8024 32.6498 32.9323 33.3644 31.8171 33.4019C30.9053 33.4322 30.1041 33.1349 29.4635 32.4672C29.1349 32.125 29.1255 31.6566 29.4259 31.3488C29.7368 31.0307 30.1823 31.0213 30.5412 31.3551C30.9261 31.714 31.3622 31.8924 31.888 31.8246C32.1352 31.7922 32.3658 31.6816 32.418 31.4313C32.4764 31.1558 32.2145 31.0578 32.0215 30.9722C31.5594 30.7667 31.0868 30.5852 30.6163 30.3984C29.9163 30.1209 29.5261 29.5972 29.4896 28.8586C29.452 28.1064 29.8036 27.5358 30.4567 27.1581C30.826 26.9453 31.2287 26.8577 31.478 26.8671V26.8681Z" fill="black"/>
<path d="M17.5016 32.5382C17.5235 32.463 17.5568 32.3118 17.6121 32.1668C18.187 30.6509 18.7639 29.1351 19.3418 27.6203C19.5484 27.0789 19.8134 26.864 20.262 26.8723C20.7533 26.8817 20.9922 27.1842 21.1508 27.6099C21.734 29.1779 22.3339 30.7406 22.917 32.3086C23.085 32.7614 22.9035 33.1881 22.507 33.3488C22.0866 33.5188 21.6651 33.3237 21.4648 32.8636C21.4335 32.7927 21.396 32.7207 21.3814 32.6456C21.3115 32.2794 21.1091 32.1438 20.7293 32.1814C20.3433 32.2189 19.95 32.2022 19.5609 32.1845C19.3439 32.1741 19.2292 32.2419 19.1666 32.4536C19.1081 32.6508 19.032 32.8501 18.9287 33.0264C18.7336 33.3581 18.4248 33.4614 18.0576 33.3707C17.7196 33.2872 17.4963 32.9753 17.5016 32.5371V32.5382ZM19.8864 30.605C20.1389 30.6374 20.3486 30.6457 20.5833 30.5998C20.4946 30.2879 20.4153 29.9999 20.2223 29.7016C20.1003 30.0292 19.998 30.3046 19.8864 30.604V30.605Z" fill="black"/>
<path d="M14.3857 28.4455C14.3106 29.0548 14.5547 29.3597 15.118 29.3604C15.2609 29.3604 15.4049 29.3573 15.5468 29.3698C15.9651 29.4074 16.2552 29.6995 16.275 30.0959C16.2958 30.508 16.0215 30.8533 15.5885 30.9003C15.2536 30.9368 14.9135 30.9159 14.5755 30.9243C14.5129 30.9253 14.4514 30.9441 14.3784 30.9566C14.3262 31.2362 14.3418 31.5032 14.369 31.8246C14.8113 31.8246 15.2359 31.8089 15.6595 31.8287C16.0684 31.8486 16.3657 32.1219 16.4231 32.486C16.4774 32.8303 16.2906 33.1651 15.9714 33.3154C15.8483 33.3738 15.72 33.38 15.5906 33.3811C14.9396 33.3832 14.2897 33.3884 13.6387 33.3811C13.1087 33.3738 12.7958 33.0952 12.7916 32.5694C12.777 30.943 12.777 29.3166 12.7926 27.6902C12.7978 27.1853 13.1129 26.8963 13.6137 26.889C14.2772 26.8786 14.9407 26.8786 15.6042 26.889C16.107 26.8963 16.4398 27.228 16.4294 27.6839C16.4189 28.1231 16.0935 28.433 15.6083 28.4445C15.2067 28.4549 14.804 28.4466 14.3857 28.4466V28.4455Z" fill="black"/>
<path d="M16.1038 16.1613C15.8148 16.1613 15.505 16.1707 15.1951 16.1592C14.6516 16.1394 14.3167 15.8296 14.3198 15.3674C14.323 14.899 14.6558 14.6079 15.2087 14.6017C15.7418 14.5954 16.2749 14.5964 16.809 14.6017C17.4527 14.6079 17.7323 14.8833 17.7344 15.5364C17.7396 17.4873 17.7365 19.4381 17.7365 21.39C17.7365 22.1057 17.7542 22.8214 17.7292 23.536C17.7052 24.2172 17.0552 24.5751 16.5232 24.2277C16.2248 24.0326 16.1716 23.7394 16.1726 23.4108C16.1768 21.1605 16.1758 18.9103 16.1726 16.66C16.1726 16.5077 16.2102 16.3481 16.1038 16.1613Z" fill="black"/>
<path d="M9.35424 28.6375C9.65156 28.1805 9.91863 27.7664 10.1909 27.3564C10.5091 26.8786 10.9483 26.745 11.3447 26.9996C11.7391 27.252 11.8069 27.7257 11.5054 28.1972C11.1058 28.82 10.7032 29.4408 10.2921 30.0563C10.1721 30.2367 10.1127 30.4172 10.1158 30.6363C10.1252 31.2727 10.121 31.9091 10.1137 32.5454C10.1075 33.0598 9.80596 33.3957 9.35841 33.4061C8.89417 33.4166 8.57389 33.0733 8.55511 32.5444C8.55407 32.5058 8.55511 32.4662 8.55511 32.4276C8.5499 31.714 8.69282 30.9555 8.49565 30.2983C8.29848 29.6421 7.76225 29.0871 7.37416 28.4883C7.30322 28.3798 7.22915 28.2723 7.16134 28.1617C6.87341 27.6985 6.93705 27.252 7.32305 26.9944C7.70174 26.7429 8.16599 26.8639 8.46018 27.299C8.68552 27.6318 8.90043 27.9729 9.12264 28.3088C9.18628 28.4048 9.25513 28.4966 9.35528 28.6375H9.35424Z" fill="black"/>
</g>
<defs>
<clipPath id="clip0_32_10">
<rect width="40" height="37.3669" fill="white" transform="translate(0.5 0.316559)"/>
</clipPath>
</defs>
</svg>
