<svg width="36" height="36" viewBox="0 0 36 36" fill="none" xmlns="http://www.w3.org/2000/svg">
<path d="M33.3267 34.6873V33.3386C33.1078 33.2356 32.8745 33.2979 32.6485 33.2883C32.2653 33.2715 32.1463 33.1685 32.1416 32.7852C32.1344 32.215 32.1416 31.6449 32.1416 31.0532H3.68089C3.68089 31.4916 3.68089 31.93 3.68089 32.3684C3.68089 32.5313 3.68328 32.6966 3.67614 32.8595C3.66424 33.1373 3.52382 33.2907 3.23824 33.2883C2.99787 33.2883 2.75751 33.2883 2.49811 33.2883V34.6921C2.75037 34.6921 2.99074 34.6849 3.23111 34.6921C3.47861 34.7017 3.66423 34.8119 3.66661 35.0898C3.66661 35.3629 3.49288 35.4922 3.24062 35.4946C2.47431 35.5018 1.71037 35.5018 0.944055 35.4946C0.69655 35.4946 0.51093 35.3796 0.50617 35.1017C0.50141 34.7999 0.701312 34.6993 0.960716 34.6897C1.18918 34.6825 1.42003 34.6897 1.67229 34.6897V33.3362C1.52474 33.2475 1.35815 33.2931 1.20108 33.2907C0.537104 33.2835 0.499023 33.2475 0.499023 32.5672C0.499023 32.5552 0.499023 32.5432 0.499023 32.5313C0.499023 22.108 0.499023 11.6824 0.499023 1.25915C0.499023 0.552448 0.549004 0.50214 1.2463 0.50214C1.8603 0.50214 2.47669 0.50214 3.09069 0.50214C3.56666 0.50214 3.67851 0.617129 3.68089 1.10823C3.68327 1.67838 3.68089 2.24853 3.68089 2.84264H32.0868C32.1773 2.72765 32.1392 2.59589 32.1416 2.47132C32.1463 1.98022 32.1439 1.49152 32.1439 1.00042C32.1439 0.693788 32.2796 0.506931 32.5961 0.504536C33.3624 0.499745 34.1264 0.497349 34.8927 0.504536C35.164 0.506931 35.3211 0.657854 35.3234 0.945325C35.3234 1.05073 35.3234 1.15614 35.3234 1.26154C35.3234 11.6848 35.3234 22.1104 35.3234 32.5337C35.3234 32.6151 35.3234 32.6966 35.3234 32.778C35.3139 33.1709 35.2116 33.2787 34.8284 33.2859C34.6119 33.2907 34.3929 33.2859 34.1525 33.2859V34.6873C34.3763 34.6873 34.6047 34.6849 34.8308 34.6873C35.1045 34.6921 35.3234 34.7831 35.3163 35.1041C35.3092 35.4036 35.0997 35.4922 34.8403 35.4946C34.1097 35.497 33.3791 35.4946 32.6485 35.4946C32.3724 35.4946 32.1558 35.3964 32.1582 35.0802C32.1606 34.7831 32.3724 34.6921 32.6318 34.6849C32.8508 34.6801 33.0697 34.6849 33.3291 34.6849L33.3267 34.6873ZM32.113 23.1022V3.66912H22.2033V5.39155C23.5979 5.39155 24.9663 5.39155 26.3347 5.39155C26.8345 5.39155 27.2986 5.51373 27.715 5.79641C28.7431 6.49592 29.7665 7.19783 30.7946 7.89735C31.0564 8.07462 31.0968 8.29981 30.9231 8.55614C30.3043 9.47365 29.6879 10.3888 29.0597 11.2991C28.8478 11.6057 28.6717 11.6177 28.3576 11.3973C28.0649 11.1937 27.7721 10.9925 27.4723 10.7864C27.3771 10.9469 27.4152 11.0883 27.4152 11.2224C27.4128 14.4206 27.4152 17.6187 27.4152 20.8168C27.4152 21.4181 27.3295 21.4995 26.7274 21.4995C20.861 21.4995 14.9923 21.4995 9.12599 21.4995C8.48105 21.4995 8.40966 21.4277 8.40966 20.7761C8.40966 17.5899 8.40966 14.4038 8.40966 11.2152C8.40966 11.0835 8.45013 10.9398 8.34779 10.7888C8.05745 10.9901 7.77186 11.1841 7.48865 11.3805C7.13643 11.6273 6.97461 11.6105 6.73901 11.2656C6.12739 10.3744 5.52052 9.47844 4.91841 8.58009C4.71137 8.27106 4.75658 8.0866 5.06358 7.87578C6.02266 7.21939 6.98651 6.57258 7.93607 5.9066C8.45012 5.54487 9.00462 5.37957 9.63052 5.38916C10.8371 5.40353 12.0413 5.39395 13.2479 5.39155C13.3693 5.39155 13.5002 5.42988 13.6192 5.34843V3.67151H3.71183V23.1022H32.1178H32.113ZM9.20215 20.6779H18.8691V20.2442C18.8691 17.0701 18.8691 13.8959 18.8691 10.7218C18.8691 10.3864 18.8596 10.0582 19.2142 9.87611C19.5688 9.69165 19.833 9.89527 20.1019 10.0845C20.3303 10.245 20.5612 10.3983 20.8182 10.5732C21.3156 9.83778 21.8082 9.11191 22.3104 8.37167C21.6488 7.91651 20.9943 7.51405 20.3922 7.04451C19.6497 6.46717 18.881 6.08388 17.9029 6.20605C17.6387 6.23959 17.5388 6.25397 17.4817 6.53665C17.0104 8.89391 14.3093 10.0941 12.2555 8.86756C11.2536 8.27106 10.6991 7.36552 10.5111 6.22761C9.80663 6.11981 9.03795 6.15335 8.69049 6.38093C7.71237 7.02295 6.74852 7.68893 5.74898 8.36688C6.25827 9.1167 6.74853 9.84017 7.24592 10.5708C7.44345 10.4343 7.59576 10.3313 7.75045 10.2259C7.90276 10.1205 8.05269 10.0079 8.21214 9.91444C8.66431 9.64613 9.1498 9.90006 9.1974 10.4295C9.20692 10.5349 9.19977 10.6403 9.19977 10.7433C9.19977 13.9055 9.19977 17.0677 9.19977 20.2299V20.6755L9.20215 20.6779ZM7.79566 27.4167C7.09599 26.4345 7.83374 25.4139 8.68811 25.4163C11.2274 25.4235 13.7667 25.4092 16.306 25.4235C17.2246 25.4283 17.753 26.3913 17.3175 27.2082C17.2794 27.2801 17.2365 27.3472 17.1985 27.4119C17.5102 27.9389 17.6126 28.3629 17.2484 28.9235C17.2056 28.9882 17.1913 29.0481 17.2389 29.1151C17.4769 29.4481 17.5245 29.8194 17.4269 30.2219H20.5326V27.7736C20.1162 27.7664 20.0233 27.5173 20.04 27.1627C20.0543 26.8489 20.04 26.5327 20.0424 26.2165C20.0448 25.7062 20.1305 25.6176 20.6231 25.6176C21.3656 25.6176 22.1081 25.6176 22.8482 25.6176C24.4832 25.6176 26.1182 25.6176 27.7531 25.6176C28.1862 25.6176 28.2862 25.723 28.291 26.1542C28.2957 26.4345 28.291 26.7148 28.291 26.995C28.291 27.3943 28.1323 27.6698 27.815 27.8215V30.2435C29.1549 30.2435 30.4638 30.2339 31.7727 30.2507C32.0678 30.253 32.1416 30.162 32.1392 29.8745C32.1273 28.018 32.1273 26.1638 32.1392 24.3072C32.1416 23.9886 32.0559 23.8975 31.7346 23.8975C22.5174 23.9071 13.3003 23.9047 4.08308 23.9071C3.95933 23.9071 3.82845 23.876 3.6928 23.9622V30.2219H7.55291C7.46962 29.7715 7.52674 29.3667 7.79566 29.0313C7.41727 28.3989 7.41964 28.0563 7.7909 27.4167H7.79566ZM2.85985 32.4857V1.3382H1.29867V32.4857H2.85985ZM32.9579 1.32862V32.4714H34.5119V1.32623H32.9579V1.32862ZM26.6132 20.685V20.2347C26.6132 17.0389 26.6132 13.8432 26.6132 10.6451C26.6132 10.3361 26.6608 10.0606 26.9511 9.89288C27.2629 9.7156 27.527 9.84496 27.7841 10.0294C28.0363 10.2115 28.2957 10.3816 28.5718 10.5684C29.0787 9.82101 29.5618 9.10233 30.0592 8.36688C29.2358 7.79913 28.429 7.27449 27.6532 6.70194C27.1415 6.32344 26.6013 6.14137 25.9706 6.18449C25.6255 6.20845 25.2757 6.18449 24.9282 6.19168C24.7997 6.19168 24.6617 6.15335 24.507 6.25157C25.309 6.79777 26.0825 7.32959 26.8583 7.85662C27.2057 8.09378 27.2462 8.25908 27.0154 8.60405C26.418 9.49281 25.8183 10.3768 25.2138 11.2608C24.9782 11.6057 24.8069 11.6273 24.4642 11.3853C24.1762 11.1817 23.8835 10.9829 23.5622 10.7625V20.6826H26.6155L26.6132 20.685ZM22.6935 20.6802C22.7697 20.5149 22.7388 20.3592 22.7388 20.2107C22.7388 17.015 22.7412 13.8169 22.7388 10.6211C22.7388 10.3121 22.7959 10.039 23.0981 9.88329C23.3861 9.73237 23.6312 9.83778 23.8716 10.0079C24.1405 10.1995 24.4166 10.3792 24.6974 10.5708C25.2067 9.81861 25.6922 9.09993 26.1848 8.36928C25.2257 7.71288 24.2976 7.07566 23.3647 6.44561C23.2409 6.36177 23.0981 6.28032 22.9553 6.26115C22.2009 6.15814 21.4417 6.20366 20.585 6.20126C20.7563 6.32823 20.842 6.3977 20.9348 6.45999C21.6226 6.93192 22.3128 7.40385 23.0029 7.87578C23.3076 8.0842 23.3552 8.27106 23.1529 8.5753C22.546 9.48323 21.9344 10.3888 21.3156 11.2919C21.1038 11.6009 20.9229 11.6225 20.6159 11.4069C20.3161 11.1985 20.0162 10.9877 19.6735 10.7505V20.6802H22.6935ZM21.368 27.8024V30.1979H26.9749V27.8024H21.368ZM11.3559 6.20845C11.4582 7.58352 12.81 8.64717 14.2784 8.54416C15.5135 8.45791 16.7606 7.25293 16.6892 6.20845H11.3559ZM12.5197 27.0166C13.6882 27.0166 14.8591 27.0166 16.0276 27.0166C16.1418 27.0166 16.2608 27.0166 16.3727 26.995C16.5511 26.9615 16.6559 26.8417 16.6701 26.6573C16.6868 26.4608 16.6059 26.3123 16.4203 26.2452C16.3251 26.2117 16.2156 26.2069 16.1133 26.2069C13.7048 26.2069 11.2988 26.2069 8.89039 26.2069C8.77616 26.2069 8.65955 26.1973 8.55007 26.25C8.38586 26.3291 8.30019 26.4608 8.31209 26.6381C8.32399 26.8154 8.41918 26.9495 8.59767 26.9879C8.72143 27.0142 8.84993 27.0142 8.97606 27.0142C10.1565 27.0142 11.3369 27.0142 12.5173 27.0142L12.5197 27.0166ZM12.4911 28.6169C13.6739 28.6169 14.8567 28.6169 16.0395 28.6169C16.1323 28.6169 16.2251 28.6193 16.3179 28.6097C16.5321 28.5881 16.6606 28.4683 16.6725 28.2503C16.6868 28.018 16.563 27.8742 16.3393 27.8311C16.2394 27.8119 16.1323 27.8191 16.0276 27.8191C13.6739 27.8191 11.3202 27.8191 8.96655 27.8191C8.84042 27.8191 8.70952 27.8191 8.58814 27.8503C8.39776 27.9006 8.30019 28.0491 8.31209 28.2455C8.32399 28.4396 8.43347 28.5737 8.63099 28.6049C8.73333 28.6216 8.83804 28.6169 8.94275 28.6169C10.1255 28.6169 11.3083 28.6169 12.4911 28.6169ZM12.4792 29.429C11.3083 29.429 10.1374 29.429 8.96655 29.429C8.50724 29.429 8.31922 29.5416 8.30971 29.817C8.30019 30.1069 8.49295 30.2267 8.97844 30.2267C11.3202 30.2267 13.662 30.2267 16.0038 30.2267C16.1204 30.2267 16.237 30.2267 16.3512 30.2099C16.5511 30.1836 16.6606 30.059 16.6725 29.8578C16.6844 29.6422 16.5773 29.4984 16.3727 29.4457C16.2751 29.4194 16.1656 29.429 16.0609 29.429C14.8662 29.429 13.6715 29.429 12.4792 29.429ZM17.4864 3.68349H14.4497V5.37478H17.4864V3.68349ZM18.3337 3.67151V5.37478H21.3561V3.67151H18.3337ZM20.8468 26.9447H27.4913C27.5104 26.7627 27.527 26.6046 27.4794 26.4273H20.8468V26.9447Z" fill="black" stroke="black" stroke-width="0.1" stroke-miterlimit="10"/>
</svg>
